<?xml version="1.0" encoding="UTF-8"?>
<svg width="159px" height="160px" viewBox="0 0 159 160" version="1.1" xmlns="http://www.w3.org/2000/svg" xmlns:xlink="http://www.w3.org/1999/xlink">
    <!-- Generator: Sketch 55.2 (78181) - https://sketchapp.com -->
    <title>Group</title>
    <desc>Created with Sketch.</desc>
    <g id="Page-2" stroke="none" stroke-width="1" fill="none" fill-rule="evenodd">
        <g id="Artboard" transform="translate(-75.000000, -354.000000)">
            <g id="Group" transform="translate(75.336000, 354.938000)">
                <path d="M79.052,1.42108547e-14 C35.393,1.42108547e-14 1.42108547e-14,35.393 1.42108547e-14,79.052 C1.42108547e-14,122.712 35.393,158.105 79.052,158.105 C122.711,158.105 158.104,122.712 158.104,79.052 C158.104,35.393 122.711,1.42108547e-14 79.052,1.42108547e-14" id="Fill-4" fill="#DA7636"></path>
                <path d="M79.052,158.105 L79.052,158.105 C80.163,158.105 81.267,158.082 82.367,158.036 C81.267,158.082 80.163,158.105 79.052,158.105 M127.951,141.17 C146.315,126.695 158.104,104.25 158.104,79.052 C158.104,78.727 158.102,78.4 158.098,78.076 C158.102,78.401 158.104,78.726 158.104,79.052 C158.104,104.25 146.315,126.695 127.951,141.17" id="Fill-5" fill="#CFE4ED"></path>
                <path d="M79.052,158.105 L79.052,158.105 C79.007,158.105 78.963,158.105 78.918,158.105 C78.913,158.105 78.909,158.105 78.904,158.105 C73.15,158.093 67.546,157.451 62.142,156.273 C58.731,152.861 56.469,150.599 55.844,149.974 C51.416,145.547 46.964,142.781 46.964,136.289 C46.964,133.414 47.562,130.102 46.264,127.704 C45.142,125.629 42.172,123.611 40.498,121.937 C36.215,117.654 30.912,113.481 27.29,108.628 C24.242,104.544 23.859,98.485 22.884,93.629 C21.291,85.694 15.485,59.83 15.108,54.894 C14.736,50.022 17.283,46.769 22.137,46.001 C22.654,45.919 23.144,45.88 23.61,45.88 C27.326,45.88 29.565,48.334 32.211,50.981 C49.048,67.817 66.034,84.307 82.987,101.048 C84.549,96.247 85.222,96.712 81.883,93.372 C80.526,92.015 71.932,83.421 68.992,80.481 C63.322,74.812 55.261,68.914 51.064,62.077 C48.798,58.385 49.404,53.815 47.504,50.089 C46.574,48.264 44.895,47.25 43.619,45.64 C39.573,40.531 46.147,39.535 51.428,39.535 C53.29,39.535 54.991,39.658 56.009,39.77 C66.928,40.962 73.202,50.082 80.587,57.184 C78.84,48.4 85.462,40.575 93.501,38.286 C96.972,37.297 101.053,37.248 104.296,35.548 C107.02,34.119 107.316,31.46 109.386,29.881 C109.762,29.593 110.2,29.463 110.688,29.463 C115.134,29.463 123.667,40.368 126.454,43.155 C127.27,43.971 128.823,46.306 129.988,46.622 C130.181,46.674 130.396,46.696 130.629,46.696 C131.251,46.696 132.001,46.54 132.79,46.385 C133.579,46.229 134.407,46.073 135.183,46.073 C135.534,46.073 135.875,46.105 136.197,46.184 C139.894,47.082 142.151,50.072 144.742,52.663 C145.761,53.681 150.213,58.019 156.722,64.375 C157.558,68.824 158.039,73.398 158.098,78.076 C158.102,78.4 158.104,78.727 158.104,79.052 C158.104,104.25 146.315,126.695 127.951,141.17 C115.307,151.138 99.543,157.327 82.367,158.036 C81.267,158.082 80.163,158.105 79.052,158.105" id="Fill-6" fill="#AC602F"></path>
                <path d="M70.639,137.763 L51.772,137.763 L51.772,123.491 C51.772,122.756 51.437,122.062 50.861,121.606 L32.3,106.893 C30.881,105.768 29.903,104.171 29.547,102.395 L19.801,53.829 C19.54,52.528 20.386,51.259 21.685,50.998 L23.57,50.62 C24.864,50.36 26.145,51.232 26.401,52.505 L34.287,91.807 C34.425,92.492 34.855,93.084 35.463,93.428 L56.909,105.535 C57.41,105.819 57.974,105.969 58.538,105.969 C59.778,105.969 60.903,105.273 61.474,104.153 C62.037,103.051 61.93,101.739 61.198,100.73 L47.276,81.563 C46.902,81.048 46.752,80.413 46.853,79.775 C46.954,79.137 47.293,78.579 47.81,78.204 L49.363,77.075 C50.397,76.325 51.979,76.585 52.723,77.607 L67.583,98.067 C69.582,100.82 70.639,104.072 70.639,107.476 L70.639,137.763 Z M56.615,74.78 C55.264,72.92 53.078,71.811 50.767,71.811 C49.236,71.811 47.774,72.284 46.537,73.182 L44.982,74.312 C43.427,75.441 42.404,77.114 42.102,79.021 C41.799,80.928 42.255,82.836 43.384,84.39 L53.216,97.926 L38.788,89.78 L31.118,51.558 C30.444,48.199 27.467,45.762 24.039,45.762 C23.566,45.762 23.09,45.809 22.624,45.903 L20.74,46.281 C16.838,47.063 14.302,50.874 15.085,54.776 L24.83,103.342 C25.41,106.232 27.001,108.832 29.311,110.663 L46.962,124.653 L46.962,140.168 C46.962,141.497 48.038,142.573 49.367,142.573 L73.044,142.573 C74.373,142.573 75.449,141.497 75.449,140.168 L75.449,107.476 C75.449,103.05 74.075,98.819 71.475,95.24 L56.615,74.78 L56.615,74.78 Z" id="Fill-7" fill="#FFFFFE"></path>
                <path d="M137.624,53.829 L127.878,102.396 C127.523,104.171 126.544,105.768 125.126,106.893 L106.564,121.606 C105.988,122.062 105.653,122.756 105.653,123.491 L105.653,137.763 L86.786,137.763 L86.786,107.476 C86.786,104.072 87.843,100.82 89.842,98.067 L104.702,77.608 C105.445,76.585 107.029,76.327 108.06,77.074 L109.617,78.205 C110.132,78.579 110.471,79.137 110.572,79.775 C110.674,80.413 110.522,81.048 110.149,81.564 L96.227,100.73 C95.495,101.739 95.388,103.051 95.951,104.154 C96.522,105.273 97.647,105.969 98.888,105.969 C99.452,105.969 100.015,105.819 100.515,105.536 L121.962,93.428 C122.571,93.084 123,92.492 123.137,91.807 L131.024,52.505 C131.279,51.232 132.556,50.36 133.855,50.62 L135.739,50.998 C137.039,51.259 137.884,52.529 137.624,53.829 Z M136.686,46.281 L134.802,45.903 C134.336,45.809 133.859,45.762 133.386,45.762 C129.958,45.762 126.981,48.199 126.308,51.558 L118.638,89.78 L104.209,97.926 L114.04,84.391 C115.17,82.836 115.626,80.928 115.324,79.021 C115.021,77.114 113.998,75.441 112.444,74.313 L110.887,73.181 C109.651,72.284 108.189,71.811 106.658,71.811 C104.347,71.811 102.161,72.92 100.81,74.781 L85.95,95.239 C83.35,98.819 81.976,103.05 81.976,107.476 L81.976,140.168 C81.976,141.497 83.052,142.573 84.381,142.573 L108.058,142.573 C109.387,142.573 110.463,141.497 110.463,140.168 L110.463,124.653 L128.114,110.663 C130.424,108.832 132.016,106.232 132.595,103.342 L142.341,54.775 C143.123,50.874 140.586,47.063 136.686,46.281 L136.686,46.281 Z" id="Fill-8" fill="#FFFFFE"></path>
                <path d="M89.624,45.385 C91.631,43.483 94.953,42.821 98.471,42.12 C102.169,41.384 106.463,40.528 109.666,37.826 C110.195,44.918 109.692,56.37 102.034,61.791 C99.826,63.353 97.508,64.145 95.142,64.145 C92.639,64.145 90.267,63.205 88.455,61.623 C92.01,56.841 96.76,52.035 103.086,48.099 C103.988,47.537 104.264,46.35 103.703,45.448 C103.141,44.545 101.955,44.271 101.052,44.831 C94.635,48.824 89.743,53.604 86.016,58.403 C85.934,58.23 85.853,58.057 85.782,57.878 C84.155,53.796 85.555,49.242 89.624,45.385 Z M68.439,57.274 C65.849,54.1 62.626,51.443 58.617,49.953 C57.619,49.584 56.513,50.09 56.142,51.086 C55.772,52.083 56.28,53.191 57.276,53.561 C61.243,55.035 64.345,57.976 66.759,61.454 C65.546,63.013 63.867,63.923 62.067,63.923 C59.985,63.923 57.832,62.741 55.84,60.503 C54.438,58.93 53.873,56.213 53.277,53.336 C52.674,50.438 51.983,47.106 50.14,44.488 C50.925,44.429 51.767,44.391 52.642,44.391 C57.207,44.391 63.342,45.426 66.645,50.358 C68.117,52.554 68.711,54.986 68.439,57.274 Z M95.142,68.956 C98.476,68.956 101.82,67.836 104.814,65.717 C118.904,55.744 113.788,31.74 113.563,30.723 C113.329,29.663 112.414,28.892 111.33,28.839 C110.247,28.786 109.262,29.467 108.926,30.499 C107.427,35.118 103.621,36.189 97.531,37.402 C93.499,38.205 89.33,39.036 86.315,41.894 C80.824,47.099 78.954,53.74 81.313,59.66 C81.747,60.747 82.311,61.761 82.979,62.695 C80.085,67.186 78.139,71.489 76.872,74.948 C75.862,71.208 74.275,66.633 71.867,62.35 C74.194,57.778 73.748,52.316 70.642,47.68 C67.093,42.381 60.868,39.581 52.642,39.581 C47.71,39.581 43.818,40.599 43.655,40.642 C42.631,40.914 41.905,41.824 41.868,42.883 C41.832,43.942 42.492,44.901 43.495,45.243 C46.695,46.335 47.545,49.399 48.566,54.314 C49.266,57.684 49.989,61.169 52.247,63.704 C55.951,67.86 59.631,68.733 62.067,68.733 C64.74,68.733 67.302,67.652 69.308,65.779 C73.467,74.028 74.644,83.111 74.662,83.259 C74.778,84.208 75.574,84.929 76.531,84.95 L76.573,84.95 C77.511,84.95 78.315,84.272 78.47,83.343 C78.493,83.208 79.956,74.954 85.743,65.616 C88.354,67.719 91.664,68.956 95.142,68.956 L95.142,68.956 Z" id="Fill-9" fill="#FFFFFE"></path>
            </g>
        </g>
    </g>
</svg>