<?xml version="1.0" encoding="UTF-8"?>
<svg width="159px" height="159px" viewBox="0 0 159 159" version="1.1" xmlns="http://www.w3.org/2000/svg" xmlns:xlink="http://www.w3.org/1999/xlink">
    <!-- Generator: Sketch 55.2 (78181) - https://sketchapp.com -->
    <title>Group</title>
    <desc>Created with Sketch.</desc>
    <g id="Page-1" stroke="none" stroke-width="1" fill="none" fill-rule="evenodd">
        <g id="Artboard" transform="translate(-119.000000, -96.000000)">
            <g id="Group" transform="translate(119.000000, 96.000000)">
                <path d="M79.052,1.42108547e-14 C35.393,1.42108547e-14 1.42108547e-14,35.393 1.42108547e-14,79.052 C1.42108547e-14,122.712 35.393,158.105 79.052,158.105 C122.711,158.105 158.104,122.712 158.104,79.052 C158.104,35.393 122.711,1.42108547e-14 79.052,1.42108547e-14" id="Fill-25" fill="#368951"></path>
                <path d="M79.052,158.105 C79.02,158.105 78.989,158.105 78.958,158.104 C78.989,158.105 79.02,158.105 79.052,158.105 C122.711,158.105 158.104,122.712 158.104,79.052 C158.104,122.712 122.711,158.105 79.052,158.105 M158.104,79.052 C158.104,79.015 158.104,78.978 158.104,78.94 C158.104,78.978 158.104,79.015 158.104,79.052" id="Fill-26" fill="#F3E0E6"></path>
                <path d="M79.052,158.105 C79.02,158.105 78.989,158.105 78.958,158.105 C77.008,158.101 75.082,158.005 73.167,157.863 C55.184,140.052 39.105,124.099 38.657,123.52 C35.34,119.234 39.462,110.39 44.355,106.544 C47.366,104.177 51.083,102.883 54.857,102.883 C56.243,102.883 57.637,103.057 59.005,103.417 C59.239,103.479 62.25,104.963 62.815,104.963 C62.827,104.963 62.838,104.962 62.848,104.961 C63.847,104.823 65.981,102.536 67.031,101.942 C69.168,100.732 73.635,100.383 75.339,99.049 C77.439,97.405 74.907,96.164 72.971,94.227 C71.252,92.508 38.812,60.068 35.267,56.523 C32.101,53.357 27.197,50.095 32.085,46.783 C37.393,43.187 44.685,41.177 51.764,41.177 C56.984,41.177 62.09,42.27 66.198,44.627 C71.487,47.662 76.055,53.181 80.291,57.574 C81.354,46.731 93.78,41.287 102.931,38.913 C107.595,37.704 112.407,37.033 117.197,36.575 C119.998,36.308 123.943,35.551 127.451,35.551 C129.506,35.551 131.412,35.811 132.848,36.58 C134.152,37.279 143.185,46.135 155.334,58.306 C157.094,64.79 158.066,71.598 158.104,78.63 L158.104,78.633 C158.104,78.656 158.104,78.679 158.104,78.702 C158.104,78.721 158.104,78.739 158.104,78.758 C158.104,78.778 158.104,78.799 158.104,78.82 C158.104,78.849 158.104,78.879 158.104,78.909 C158.104,78.919 158.104,78.93 158.104,78.94 C158.104,78.978 158.104,79.015 158.104,79.052 C158.104,122.712 122.711,158.105 79.052,158.105" id="Fill-27" fill="#2D6B40"></path>
                <path d="M55.258,57.316 C60.317,59.227 67.15,62.678 71.681,66.488 C71.599,66.642 71.514,66.783 71.425,66.888 C70.017,68.557 67.951,69.404 65.284,69.404 C63.071,69.404 60.435,68.804 57.86,67.714 C53.121,65.708 51.804,63.372 49.812,59.836 C48.864,58.155 47.79,56.249 46.204,54.19 C45.208,52.897 42.22,50.548 39.035,48.889 C42.661,47.47 47.566,46.058 52.736,46.058 C55.495,46.058 58.092,46.471 60.455,47.286 C68.298,49.991 70.948,55.754 71.83,58.949 C72.01,59.6 72.126,60.218 72.215,60.819 C65.899,56.294 58.368,53.347 56.956,52.814 C55.714,52.348 54.327,52.974 53.857,54.216 C53.388,55.459 54.016,56.846 55.258,57.316 Z M88.212,51.769 C93.445,46.128 102.914,43.657 108.093,42.686 C113.852,41.607 120.15,40.986 127.672,40.764 C124.018,47.444 113.309,63.169 102.546,67.415 C100.758,68.12 98.908,68.478 97.048,68.478 L97.047,68.478 C94.673,68.477 92.377,67.86 90.436,66.803 C97.731,60.595 107.666,53.035 115.197,50.675 C116.464,50.278 117.17,48.928 116.773,47.66 C116.376,46.393 115.029,45.688 113.758,46.084 C105.222,48.759 94.378,57.069 86.717,63.635 C86.314,63.089 85.966,62.513 85.7,61.903 C84.279,58.647 85.171,55.048 88.212,51.769 Z M104.486,108.131 C102.933,108.131 101.436,108.375 100.014,108.804 C96.51,103.114 89.497,99.114 81.289,98.691 L81.289,75.055 C82.251,74.13 84.142,72.343 86.629,70.123 C89.546,72.12 93.199,73.288 97.046,73.288 L97.048,73.288 C99.515,73.288 101.959,72.818 104.311,71.89 C118.86,66.151 134.362,41.502 133.678,37.904 C133.455,36.73 132.432,35.878 131.216,35.878 C121.763,35.999 114.134,36.66 107.207,37.958 C101.445,39.038 90.857,41.843 84.684,48.498 C80.327,53.197 79.09,58.784 81.291,63.827 C81.758,64.896 82.363,65.899 83.083,66.822 C82.011,67.784 81.055,68.662 80.239,69.421 C79.494,67.854 78.388,66.366 77.064,64.968 C77.352,62.756 77.173,60.225 76.468,57.668 C74.539,50.68 69.274,45.239 62.023,42.738 C59.155,41.749 56.03,41.248 52.736,41.248 C41.234,41.248 30.964,47.382 30.533,47.642 L30.527,47.647 L30.519,47.651 L30.512,47.656 C29.38,48.348 29.029,49.822 29.718,50.955 C30.386,52.052 31.795,52.423 32.914,51.821 L33.011,51.817 C35.421,51.817 41.238,55.627 42.393,57.126 C43.769,58.912 44.71,60.582 45.621,62.198 C47.736,65.952 49.735,69.498 55.985,72.144 C58.216,73.089 61.641,74.214 65.284,74.214 C69.353,74.214 72.731,72.767 75.061,70.033 C75.99,71.358 76.52,72.682 76.479,73.961 L76.481,74.004 L76.478,74.037 L76.478,98.859 C71.067,99.521 66.285,101.747 62.848,104.959 C60.436,103.634 57.7,102.874 54.791,102.874 C45.146,102.874 37.326,111.112 37.326,121.273 C37.326,121.595 37.357,121.909 37.372,122.227 L120.44,122.227 C119.096,114.219 112.473,108.131 104.486,108.131 L104.486,108.131 Z" id="Fill-28" fill="#FFFFFE"></path>
            </g>
        </g>
    </g>
</svg>