<?xml version="1.0" encoding="UTF-8"?>
<svg width="800px" height="147px" viewBox="0 0 800 147" version="1.1" xmlns="http://www.w3.org/2000/svg" xmlns:xlink="http://www.w3.org/1999/xlink">
    <!-- Generator: Sketch 55.2 (78181) - https://sketchapp.com -->
    <title>shutterstock_1059924827</title>
    <desc>Created with Sketch.</desc>
    <defs>
        <polygon id="path-1" points="0.06 0 800 0 800 400.93985 0.06 400.93985"></polygon>
        <polygon id="path-3" points="0.153 0.333073432 26.4253413 0.333073432 26.4253413 69.94 0.153 69.94"></polygon>
        <polygon id="path-5" points="0.285 0.00914997779 21.6875114 0.00914997779 21.6875114 59.94 0.285 59.94"></polygon>
        <polygon id="path-7" points="0.861629318 0.247119468 27.0818569 0.247119468 27.0818569 87.94 0.861629318 87.94"></polygon>
        <polygon id="path-9" points="0.015698492 0.883 14.081 0.883 14.081 91.94 0.015698492 91.94"></polygon>
        <polygon id="path-11" points="0.00352376781 0.296 297.426 0.296 297.426 85.94 0.00352376781 85.94"></polygon>
        <polygon id="path-13" points="0.76 0.396 519.435 0.396 519.435 79.94 0.76 79.94"></polygon>
        <polygon id="path-15" points="0.843 0.245 676.823784 0.245 676.823784 57.94 0.843 57.94"></polygon>
        <polygon id="path-17" points="0.084 0.344435795 24.5824661 0.344435795 24.5824661 74.94 0.084 74.94"></polygon>
        <polygon id="path-19" points="0.0780030449 0.0166293703 24.029 0.0166293703 24.029 82.94 0.0780030449 82.94"></polygon>
        <polygon id="path-21" points="0.367 0.704 11.768 0.704 11.768 65.94 0.367 65.94"></polygon>
        <polygon id="path-23" points="0.331 0.75 89.535 0.75 89.535 92.94 0.331 92.94"></polygon>
        <polygon id="path-25" points="0.954 0.687 37.067 0.687 37.067 88.94 0.954 88.94"></polygon>
        <polygon id="path-27" points="0.679 0.580162473 26.8925184 0.580162473 26.8925184 78.94 0.679 78.94"></polygon>
        <polygon id="path-29" points="0.719 0.763 89.438 0.763 89.438 77.94 0.719 77.94"></polygon>
        <polygon id="path-31" points="0.0333437563 0.634236204 30.108 0.634236204 30.108 77.94 0.0333437563 77.94"></polygon>
        <polygon id="path-33" points="0.957 0.355 12.323 0.355 12.323 63.94 0.957 63.94"></polygon>
        <polygon id="path-35" points="0.608739937 0.403 142.421 0.403 142.421 61.94 0.608739937 61.94"></polygon>
        <polygon id="path-37" points="0.727 0.824315188 32.857 0.824315188 32.857 56.94 0.727 56.94"></polygon>
        <polygon id="path-39" points="0.051 0.483 17.7919477 0.483 17.7919477 33.94 0.051 33.94"></polygon>
        <polygon id="path-41" points="0.06 0.930320581 36.957 0.930320581 36.957 106.94 0.06 106.94"></polygon>
        <polygon id="path-43" points="0.196 0.610460846 25 0.610460846 25 63.94 0.196 63.94"></polygon>
    </defs>
    <g id="shutterstock_1059924827" stroke="none" stroke-width="1" fill="none" fill-rule="evenodd">
        <g id="Group" transform="translate(0.000000, -254.000000)">
            <g id="Group-3">
                <mask id="mask-2" fill="white">
                    <use xlink:href="#path-1"></use>
                </mask>
                <g id="Clip-2"></g>
                <polygon id="Fill-1" fill="#FFFFFE" mask="url(#mask-2)" points="0.06 400.93985 800 400.93985 800 0 0.06 0"></polygon>
            </g>
            <path d="M41.1375927,369.804769 C41.1375927,369.804769 41.7998859,372.103797 41.1622362,378 C42.5812892,371.780512 43.8945807,369.354372 45.9954364,367.672888 C47.4257844,366.526877 48.7965773,365.233736 50,363.921578 C41.7156874,360.124227 37.0765545,349.813129 35.0496292,344 C33.3933828,348.040565 32.4743868,352.625611 32,357.081543 C32.9682829,358.027377 33.87085,359.001236 34.6717627,359.981101 C36.7192242,362.480306 40.2596691,366.889196 41.1375927,369.804769" id="Fill-4" fill="#539242"></path>
            <g id="Group-8" transform="translate(32.000000, 331.000000)">
                <mask id="mask-4" fill="white">
                    <use xlink:href="#path-3"></use>
                </mask>
                <g id="Clip-6"></g>
                <path d="M18.153,32.803 C19.783,30.989 21.094,29.136 21.793,27.584 C30.115,9.09 25.9,0.068 19.515,0.339 C11.181,0.702 6.345,6.004 3.593,12.899 C5.567,18.707 10.085,29.009 18.153,32.803" id="Fill-5" fill="#7EB04A" mask="url(#mask-4)"></path>
                <path d="M0.878,46.364 C0.878,46.364 0.391,57.656 0.153,70 L6.803,70 C6.921,65.588 7.113,61.501 7.421,58.603 C7.421,58.603 2.444,56.75 0.878,46.364" id="Fill-7" fill="#98A45A" mask="url(#mask-4)"></path>
            </g>
            <path d="M35.6344479,360.235616 C34.8459565,359.261665 33.9573872,358.293683 33.0041213,357.353556 C26.7598756,351.180556 17.7751166,346.186444 16,348.635747 C20.1840591,350.809479 26.2655521,354.777908 29.7268274,360.789744 C30.1099533,361.056362 30.4769051,361.307062 30.8185848,361.543835 C31.4342146,361.974602 32.0397356,362.403379 32.6280715,362.829172 C37.9180404,366.627482 42,370 42,370 C41.1356921,367.102022 37.6501555,362.719739 35.6344479,360.235616" id="Fill-9" fill="#55803C"></path>
            <path d="M15.3152958,348 C15.1036611,348.287796 14.9887737,348.674797 15.0008671,349.181632 C15.0300929,350.741426 23.7272721,356.409921 29,360 C25.5493463,354.064337 19.4865154,350.14619 15.3152958,348" id="Fill-10" fill="#749B40"></path>
            <path d="M41.1966081,381 C41.4284021,379.621392 41.5978299,378.382628 41.7194438,377.269823 C42.3649328,371.427102 41.6944973,369.148927 41.6944973,369.148927 C41.6944973,369.148927 37.4972599,365.78671 32.0578979,362 C31.9820192,364.052044 31.9872164,366.003915 32.0360698,367.779245 C35.2905399,370.31033 39.725808,374.766508 41.1966081,381" id="Fill-11" fill="#6F9940"></path>
            <path d="M39.3435833,389 C40.1003064,385.983523 40.6303188,383.382059 41,381.140403 C39.5549756,374.944797 35.1974356,370.515702 32,368 C32.139907,373.257147 32.6617497,376.93508 32.6617497,376.93508 C34.2609781,387.173356 39.3435833,389 39.3435833,389" id="Fill-12" fill="#93AE3D"></path>
            <path d="M386.106649,372.251594 C386.106649,372.251594 386.620726,374.144638 386.126308,379 C387.229165,373.877826 388.250439,371.879275 389.884083,370.495507 C390.99677,369.551014 392.063259,368.486812 393,367.406377 C386.555852,364.278696 382.947483,355.787391 381.371832,351 C380.083199,354.327536 379.368602,358.103478 379,361.772899 C379.752931,362.552029 380.455733,363.354493 381.07695,364.161014 C382.670294,366.218406 385.423506,369.849275 386.106649,372.251594" id="Fill-13" fill="#539242"></path>
            <g id="Group-17" transform="translate(378.000000, 341.000000)">
                <mask id="mask-6" fill="white">
                    <use xlink:href="#path-5"></use>
                </mask>
                <g id="Clip-15"></g>
                <path d="M14.967,26.39 C16.291,24.916 17.356,23.411 17.922,22.15 C24.686,7.124 21.261,-0.207 16.073,0.014 C9.301,0.308 5.372,4.617 3.137,10.218 C4.74,14.937 8.411,23.307 14.967,26.39" id="Fill-14" fill="#7EB04A" mask="url(#mask-6)"></path>
                <path d="M0.931,37.408 C0.931,37.408 0.442,48.75 0.285,60 L5.672,60 C5.752,55.176 5.919,50.437 6.247,47.351 C6.247,47.351 2.203,45.845 0.931,37.408" id="Fill-16" fill="#98A45A" mask="url(#mask-6)"></path>
            </g>
            <path d="M380.857779,364.010814 C380.222664,363.2144 379.504139,362.421993 378.734364,361.652627 C373.69163,356.60266 366.433029,352.516404 365,354.519961 C368.379576,356.299121 373.290664,359.545886 376.087381,364.46462 C376.395894,364.682006 376.692348,364.88737 376.968704,365.080714 C377.466143,365.43334 377.954539,365.783962 378.42987,366.132581 C382.702828,369.240099 386,372 386,372 C385.301574,369.627788 382.486768,366.042421 380.857779,364.010814" id="Fill-18" fill="#55803C"></path>
            <path d="M365.247424,355 C365.08077,355.240758 364.990134,355.563111 365.000854,355.985192 C365.02327,357.284678 371.857047,362.00816 376,365 C373.287735,360.053893 368.524947,356.78906 365.247424,355" id="Fill-19" fill="#749B40"></path>
            <path d="M385.357786,382 C385.542011,380.83842 385.678133,379.795053 385.776386,378.858593 C386.291193,373.938837 385.755916,372.020687 385.755916,372.020687 C385.755916,372.020687 382.397903,369.188693 378.046097,366 C377.985712,367.727979 377.989806,369.371667 378.028698,370.866303 C380.632412,372.998265 384.180792,376.750273 385.357786,382" id="Fill-20" fill="#6F9940"></path>
            <path d="M383.711632,388 C384.29912,385.559221 384.71261,383.452392 385,381.63826 C383.875855,376.62214 380.486804,373.037093 378,371 C378.108504,375.255893 378.515152,378.233938 378.515152,378.233938 C379.758553,386.5208 383.711632,388 383.711632,388" id="Fill-21" fill="#93AE3D"></path>
            <path d="M195.371109,350.807387 C196.199138,347.889732 199.543481,343.480496 201.476852,340.979073 C202.232625,339.999466 203.086043,339.027923 204,338.080567 C203.551809,333.62497 202.681792,329.039364 201.119472,325 C199.2027,330.813137 194.825273,341.1242 187,344.921686 C188.136588,346.232867 189.434291,347.526915 190.782769,348.667773 C192.764963,350.352857 194.007984,352.782725 195.344744,359 C194.74618,353.102205 195.371109,350.807387 195.371109,350.807387" id="Fill-22" fill="#5DA344"></path>
            <g id="Group-26" transform="translate(178.000000, 313.000000)">
                <mask id="mask-8" fill="white">
                    <use xlink:href="#path-7"></use>
                </mask>
                <g id="Clip-24"></g>
                <path d="M23.537,12.726 C20.804,5.88 16.002,0.608 7.723,0.253 C1.382,-0.016 -2.802,8.943 5.463,27.312 C6.158,28.851 7.459,30.693 9.077,32.493 C17.091,28.725 21.574,18.494 23.537,12.726" id="Fill-23" fill="#8BC153" mask="url(#mask-8)"></path>
                <path d="M26.233,45.959 C24.679,56.279 19.732,58.116 19.732,58.116 C20.487,65.183 20.549,79.346 20.508,88 L27.02,88 C27.353,71.887 26.233,45.959 26.233,45.959" id="Fill-25" fill="#A9B664" mask="url(#mask-8)"></path>
            </g>
            <path d="M195,351 C195,351 199.08394,347.620541 204.371075,343.823408 C204.962493,343.400725 205.564091,342.973034 206.179939,342.545344 C206.525018,342.302952 206.890455,342.051546 207.274215,341.787119 C210.736199,335.77641 216.814267,331.805997 221,329.636493 C219.226764,327.185534 210.240467,332.1796 203.995458,338.35157 C203.042675,339.29309 202.153003,340.25865 201.365124,341.232223 C199.34962,343.718238 195.863206,348.100316 195,351" id="Fill-27" fill="#5F9140"></path>
            <path d="M208,342 C213.269888,338.407221 221.966118,332.740087 221.9996,331.181106 C222.007717,330.674635 221.892051,330.288847 221.681012,330 C217.508932,332.14261 211.450691,336.063803 208,342" id="Fill-28" fill="#80AD40"></path>
            <path d="M204.964567,349.78148 C205.012712,348.006096 205.017945,346.052975 204.941541,344 C199.505343,347.785421 195.306261,351.154457 195.306261,351.154457 C195.306261,351.154457 194.636418,353.428106 195.278002,359.271495 C195.400458,360.381858 195.571059,361.624028 195.802364,363 C197.273926,356.766187 201.7085,352.313748 204.964567,349.78148" id="Fill-29" fill="#7CAB41"></path>
            <path d="M204.336875,358.933784 C204.336875,358.933784 204.861206,355.257444 205,350 C201.801576,352.517062 197.445511,356.942764 196,363.139144 C196.370117,365.379289 196.902673,367.986672 197.653187,371 C197.653187,371 202.739205,369.176718 204.336875,358.933784" id="Fill-30" fill="#A2C23B"></path>
            <path d="M137.344543,283.285611 C140.871811,281.337307 146.770463,280.249345 154.958656,286 C158.582922,281.729374 161.436261,277.438694 162.797255,273.638349 C163.695491,271.125508 161.318045,268.836277 161.318045,268.836277 C161.279651,268.546488 161.217007,268.268732 161.14931,268 C156.565175,269.896162 146.796733,274.608991 137,283.495181 C137.117205,283.42499 137.222286,283.352794 137.344543,283.285611" id="Fill-31" fill="#549041"></path>
            <path d="M132.94779,289.856857 C133.142829,288.584585 133.428886,287.55956 133.604921,287 C126.171434,294.685686 119.115023,304.967968 114.774155,318.487487 C114.562112,321.22022 114.310062,324.07007 114,327 C116.273455,320.325325 120.283257,311.167167 125.661332,309.147147 C129.30006,307.781782 134.072014,304.853854 139,301.088088 C132.640728,299.321321 132.378676,293.578579 132.94779,289.856857" id="Fill-32" fill="#549041"></path>
            <path d="M115.407096,301.204114 C115.529409,301.477467 115.639789,301.765784 115.733264,302.069067 C115.733264,302.069067 115.717354,303.296163 115.651722,305.386217 C115.576147,307.590999 115.441901,310.760499 115.197275,314.442785 C115.099822,315.908316 114.987453,317.44069 114.867129,319 C119.182888,305.525886 126.198481,295.278137 133.588968,287.618264 C133.67946,287.327951 133.741114,287.156357 133.741114,287.156357 C133.741114,287.156357 134.924467,285.454385 137.232503,284.062679 C146.874344,275.221601 156.488342,270.532697 161,268.646162 C158.151003,257.209227 130.306407,263.862482 118.743356,282.15619 C115.703432,286.961818 114.659297,292.486743 114,299.115057 C114.039777,299.166935 114.08552,299.222802 114.125296,299.276675 C114.618526,299.947088 115.053085,300.593559 115.407096,301.204114" id="Fill-33" fill="#67A643"></path>
            <path d="M114,299 C113.959708,298.946441 113.913371,298.890898 113.873079,298.839322 C109.505382,293.109461 100.782076,285.757941 100.782076,285.757941 C90.4077879,276.145025 83.1057964,277.287625 79,279.615474 C87.5218442,281.745947 103.561244,287.119737 98.2738733,296.424191 C99.2076498,296.28335 100.18877,296.158378 101.19608,296.071096 C105.94857,295.657498 111.193634,296.0463 114,299" id="Fill-34" fill="#95B849"></path>
            <path d="M78.7289169,279 C76.1373579,280.476643 74.8219834,282.42831 74.8219834,282.42831 C74.8219834,282.42831 74.2974414,283.865285 74,285.862571 C79.1348842,288.304139 86.0061833,292.580354 86.085568,298 C87.5406193,297.916697 89.1574547,297.707448 90.9611958,297.357378 C90.9611958,297.357378 94.005951,296.411295 97.9560939,295.806357 C103.230655,286.50321 87.2301146,281.130174 78.7289169,279" id="Fill-35" fill="#67A643"></path>
            <path d="M74.1988474,286 C73.4962927,290.724528 74.0614764,298.654428 86,297.956886 C85.9224835,292.617856 79.21289,288.40525 74.1988474,286" id="Fill-36" fill="#549041"></path>
            <path d="M114.473339,314 C114.713707,310.368362 114.845617,307.242457 114.919877,305.068 C114.984366,303.006694 115,301.796476 115,301.796476 C114.908152,301.497365 114.799693,301.213013 114.679509,300.943419 C114.331658,300.341262 113.904662,299.703684 113.420017,299.042492 C110.697795,296.112386 105.609994,295.726691 101,296.136984 C103.383166,298.937212 103.993858,304.915493 104.081798,309.515306 C107.780151,309.903953 112.537688,311.000037 114.473339,314" id="Fill-37" fill="#5D883E"></path>
            <g id="Group-41" transform="translate(101.000000, 309.000000)">
                <mask id="mask-10" fill="white">
                    <use xlink:href="#path-9"></use>
                </mask>
                <g id="Clip-39"></g>
                <path d="M12.975,18.513 C13.285,15.586 13.537,12.739 13.749,10.009 C13.87,8.446 13.983,6.91 14.081,5.441 C12.1,2.392 7.231,1.278 3.446,0.883 C3.514,4.375 3.283,7.089 3.283,7.089 C1.204,17.55 2.148,40.03 2.148,40.03 L10.839,33.678 C11.767,28.613 12.451,23.466 12.975,18.513" id="Fill-38" fill="#89AF3F" mask="url(#mask-10)"></path>
                <path d="M2.148,40.03 C2.148,40.03 -0.314,76.347 0.053,92 L8.059,92 C8.254,81.58 9.032,46.527 10.839,33.678 C10.839,33.678 7.249,36.318 2.148,40.03" id="Fill-40" fill="#98A45A" mask="url(#mask-10)"></path>
            </g>
            <path d="M103,349 C108.282361,345.493703 112,343 112,343 L103,349" id="Fill-42" fill="#89AF3F"></path>
            <path d="M518.774038,324.490827 C518.562028,327.222846 518.311015,330.071908 518,333 C520.273112,326.330513 524.283309,317.175099 529.660573,315.157347 C540.718116,311.010801 562.225173,292.492896 566.799398,279.625097 C567.688441,277.118163 565.334326,274.833311 565.334326,274.833311 C565.297324,274.545203 565.235321,274.2671 565.168318,274 C556.551894,277.59334 529.442562,291.283445 518.774038,324.490827" id="Fill-43" fill="#549041"></path>
            <path d="M519.406132,306.204794 C519.528447,306.477155 519.640818,306.766475 519.732306,307.069763 C519.732306,307.069763 519.716395,308.296881 519.650763,310.386972 C519.577175,312.590796 519.440937,315.76135 519.196306,319.443701 C519.098851,320.909259 518.98648,322.44166 518.866153,324 C529.47479,290.88278 556.431945,277.229846 565,273.646262 C562.150943,262.209124 534.304763,268.862497 522.742462,287.156532 C519.702473,291.962245 518.658316,297.487269 518,304.115701 C518.039777,304.168577 518.085521,304.224445 518.124304,304.277321 C518.617544,304.946749 519.052113,305.593231 519.406132,306.204794" id="Fill-44" fill="#67A643"></path>
            <path d="M518,304 C517.960715,303.947434 517.914379,303.891892 517.874086,303.839325 C513.505382,298.110574 504.783083,290.758214 504.783083,290.758214 C494.408795,281.145497 487.105796,282.287081 483,284.615874 C491.520837,286.745311 507.562252,292.118991 502.273873,301.423252 C503.208657,301.283406 504.18877,301.158436 505.19608,301.071156 C509.94857,300.657567 515.194641,301.046361 518,304" id="Fill-45" fill="#95B849"></path>
            <path d="M483.728868,285 C481.137336,286.476643 479.82298,288.427319 479.82298,288.427319 C479.82298,288.427319 479.298443,289.865285 479,291.862571 C484.134831,294.304139 491.006059,298.579362 491.086448,304 C492.540479,303.915705 494.157298,303.707448 495.961021,303.357378 C495.961021,303.357378 499.007754,302.411295 502.955846,301.805366 C508.231358,292.502218 492.228973,287.129182 483.728868,285" id="Fill-46" fill="#67A643"></path>
            <path d="M479.198827,292 C478.496329,296.724528 479.061467,304.654428 491,303.956886 C490.921509,298.616879 484.212461,294.40525 479.198827,292" id="Fill-47" fill="#549041"></path>
            <path d="M519.473339,319 C519.713707,315.368362 519.847571,312.241473 519.919877,310.068 C519.984366,308.006694 520,306.796476 520,306.796476 C519.910106,306.497365 519.799693,306.212029 519.679509,305.943419 C519.331658,305.340278 518.904662,304.7027 518.420017,304.042492 C515.698772,301.112386 510.609994,300.726691 506,301.136984 C508.383166,303.937212 508.993858,309.915493 509.081798,314.515306 C512.780151,314.903953 517.537688,316.000037 519.473339,319" id="Fill-48" fill="#5D883E"></path>
            <g id="Group-54" transform="translate(222.000000, 315.000000)">
                <mask id="mask-12" fill="white">
                    <use xlink:href="#path-11"></use>
                </mask>
                <g id="Clip-50"></g>
                <path d="M292.689,7.86 C293.51,9.473 292.25,10.928 291.119,11.954 C290.953,12.104 290.781,12.248 290.609,12.393 C289.023,13.765 287.281,14.989 285.564,16.238 C284.969,26.935 285.494,39.443 285.494,39.443 L294.186,33.09 C295.113,28.026 295.796,22.88 296.32,17.927 C296.631,15 296.882,12.152 297.094,9.421 C297.215,7.859 297.328,6.323 297.426,4.854 C295.445,1.805 290.576,0.691 286.791,0.296 C286.859,3.788 286.629,6.502 286.629,6.502 C286.603,6.633 286.579,6.774 286.555,6.908 C287.293,6.61 288.057,6.385 288.852,6.278 C290.199,6.097 292.035,6.578 292.689,7.86" id="Fill-49" fill="#89AF3F" mask="url(#mask-12)"></path>
                <path d="M285.494,39.443 C285.494,39.443 283.511,68.684 283.368,86 L291.515,86 C291.826,71.983 292.62,44.214 294.186,33.09 C294.186,33.09 290.594,35.731 285.494,39.443" id="Fill-51" fill="#98A45A" mask="url(#mask-12)"></path>
                <path d="M294.186,33.09 L285.494,39.443 C290.594,35.731 294.186,33.09 294.186,33.09" id="Fill-52" fill="#89AF3F" mask="url(#mask-12)"></path>
                <path d="M12.922,32.401 C12.922,32.401 7.155,31.327 4.59,27.059 C-1.466,52.419 -0.282,74.217 1.194,86 L8.855,86 C4.746,54.405 12.922,32.401 12.922,32.401" id="Fill-53" fill="#98A45A" mask="url(#mask-12)"></path>
            </g>
            <path d="M236.865545,320.081061 C236.813603,319.1207 236.880528,318.182555 237.00339,317.365592 C237.246118,315.766 237.668644,314.621847 237.668644,314.621847 C237.668644,314.621847 238.229016,313.808923 239.318794,312.913191 C247.238914,291.851893 259.15855,276.907217 265,270.393726 C253.388019,262.7482 237.257106,288.711279 235.329267,296.079098 C233.517299,302.989458 232.318643,316.548628 232,320.452684 C233.027848,323.015667 233.869903,325.858377 234.473227,329 C235.172443,325.933105 235.975543,322.959116 236.865545,320.081061" id="Fill-55" fill="#549041"></path>
            <path d="M236.29004,320 C235.438088,322.818991 234.669323,325.731949 234,328.735905 C234.121434,329.380811 234.249562,330.017804 234.34996,330.690406 C235.054661,335.413452 235.22008,340.804154 234.613865,347 C236.046215,341.073195 237.664064,332.254204 240,326.006924 C237.277769,324.739862 236.41243,322.301682 236.29004,320" id="Fill-56" fill="#67A643"></path>
            <path d="M240.525513,311.972569 C242.765762,310.742643 246.178706,309.945636 250.721883,311.81596 C252.695244,309.569576 254.570543,307.450873 255.84332,305.889776 C277.287442,279.584539 266.064965,271.791022 266.064965,271.791022 C265.709113,271.494763 265.354272,271.233416 264.991343,271 C259.079349,277.433915 247.015767,292.19601 239,313 C239.42864,312.65586 239.932089,312.299751 240.525513,311.972569" id="Fill-57" fill="#67A643"></path>
            <path d="M205,297.832497 C206.037973,298.654965 207.432562,299.137412 208.555206,299.610832 C210.468781,300.419258 212.269793,301.485456 214.065825,302.522568 C218.087222,304.843531 221.8556,307.607823 225.246444,310.790371 C226.963781,312.399198 228.548631,314.14343 230,316 C228.535682,313.262788 226.87114,310.885657 225.136869,308.809428 C222.977248,306.225677 220.764832,303.703109 218.338248,301.362086 C217.055226,300.126379 215.776188,298.887663 214.405507,297.746239 C213.479101,296.972919 212.507869,296.238716 211.512731,295.553661 C210.70885,295.001003 209.874089,294.465396 209.004463,294 C207.71646,295.302909 206.375662,296.584754 205,297.832497" id="Fill-58" fill="#67A643"></path>
            <path d="M213.495536,302.776081 C211.707099,301.71995 209.913703,300.634198 208.008219,299.810948 C206.890322,299.328845 205.50163,298.83755 204.468046,298 C203.982004,298.45146 203.492986,298.896792 203,299.338038 C204.987814,300.383955 222.115346,309.559218 231,320 C230.491144,318.770231 229.943602,317.609917 229.362335,316.500673 C227.917104,314.610056 226.338954,312.833836 224.628879,311.195506 C221.252374,307.954594 217.499929,305.139607 213.495536,302.776081" id="Fill-59" fill="#95B849"></path>
            <path d="M203.030621,299 C203.020743,299.008886 203.009878,299.01876 203,299.026659 C205.575102,301.226558 208.532469,303.05816 211.136216,305.234361 C213.240154,306.992897 215.249267,308.853134 217.244551,310.733119 C220.556526,313.844375 222.772081,317.245923 224.23496,320.604026 C227.203193,322.845394 231.202651,326.230157 234,330 C233.896285,329.328577 233.763924,328.6927 233.638478,328.048923 C233.041868,324.977163 232.209183,322.197668 231.192773,319.69168 C231.097948,319.455695 231.012012,319.204899 230.913236,318.97385 C222.06583,308.880781 205.010101,300.011084 203.030621,299" id="Fill-60" fill="#549041"></path>
            <g id="Group-64" transform="translate(224.000000, 321.000000)">
                <mask id="mask-14" fill="white">
                    <use xlink:href="#path-13"></use>
                </mask>
                <g id="Clip-62"></g>
                <path d="M10.646,9.912 C7.814,6.094 3.765,2.666 0.76,0.396 C5.343,10.92 2.59,21.059 2.59,21.059 C5.155,25.327 10.922,26.401 10.922,26.401 C11.556,20.137 11.383,14.687 10.646,9.912" id="Fill-61" fill="#89AF3F" mask="url(#mask-14)"></path>
                <path d="M511.104,42.908 C507.818,56.665 506.669,69.367 506.535,80 L514.272,80 C514.858,60.568 519.435,48.25 519.435,48.25 C519.435,48.25 513.667,47.176 511.104,42.908" id="Fill-63" fill="#98A45A" mask="url(#mask-14)"></path>
            </g>
            <path d="M773,292.393939 C761.388019,284.747826 745.259103,310.710479 743.329267,318.0789 C741.517299,324.990897 740.318643,338.554366 740,342.454166 C741.028846,345.015998 741.869903,347.857541 742.473227,351 C749.205678,321.458659 765.763114,300.460123 773,292.393939" id="Fill-65" fill="#549041"></path>
            <path d="M743.370004,352.402222 C744.119136,357.210444 744.29248,362.695059 743.651815,369 C745.601179,361.255712 747.868848,348.636771 751.666205,342.971987 C752.903944,341.128013 754.970898,338.627778 757.171662,336.064131 C757.629859,333.853778 758.538143,332.973059 758.538143,332.973059 C758.733789,332.746588 758.932476,332.546288 759.132177,332.37115 C759.819472,331.759176 760.535151,331.44715 761.26705,331.357569 C762.63353,329.789386 763.881407,328.348026 764.806924,327.205608 C786.310749,300.663255 775.056543,292.798183 775.056543,292.798183 C774.699717,292.499242 774.343905,292.235529 773.979984,292 C766.635656,300.040209 749.832404,320.971124 743,350.417333 C743.128741,351.072588 743.264578,351.719791 743.370004,352.402222" id="Fill-66" fill="#67A643"></path>
            <path d="M712.239441,319.002193 C713.123251,320.601262 715.228828,321.259992 716.788551,321.912814 C718.68229,322.704471 720.46469,323.752137 722.239208,324.771248 C726.216847,327.04874 729.944221,329.761447 733.298168,332.885736 C734.997804,334.466097 736.564424,336.1784 738,338 C736.5526,335.313879 734.905186,332.980262 733.190771,330.943025 C731.05465,328.405586 728.866308,325.929195 726.465142,323.631025 C725.197066,322.416954 723.931946,321.201898 722.576179,320.080383 C721.657883,319.322204 720.699191,318.600457 719.713895,317.928926 C718.673422,317.218995 717.575803,316.532695 716.419066,316 C714.152885,316.179206 711.122115,316.976771 712.239441,319.002193" id="Fill-67" fill="#67A643"></path>
            <path d="M740,342 C739.486369,340.782845 738.930521,339.635386 738.341503,338.538431 C736.877001,336.66977 735.278813,334.913228 733.54493,333.292038 C730.123402,330.087032 726.320921,327.304241 722.263133,324.96791 C720.452859,323.922469 718.634544,322.847737 716.702647,322.035627 C715.111495,321.365939 712.963491,320.69019 712.061872,319.049809 C710.922032,316.97206 714.013872,316.153889 716.325716,315.970053 C715.362782,315.521574 714.355623,315.180165 713.2972,315.038753 C711.885971,314.847846 709.96513,315.35592 709.276603,316.704386 C708.414185,318.403353 709.737966,319.938686 710.922032,321.016449 C711.093913,321.174022 711.27685,321.324525 711.453756,321.478058 C712.240788,321.877043 730.640049,331.264793 740,342" id="Fill-68" fill="#95B849"></path>
            <path d="M743,353 C742.894433,352.310866 742.758414,351.657307 742.6295,350.995617 C742.0164,347.832513 741.161713,344.972303 740.116193,342.393641 C740.018747,342.148683 739.930436,341.890512 739.827914,341.650637 C730.375607,330.848109 711.794798,321.401487 711,321 C713.678763,323.319474 716.782839,325.227297 719.50525,327.506114 C721.668358,329.316361 723.73199,331.232316 725.783442,333.167583 C729.185948,336.370327 731.463759,339.870883 732.966059,343.328749 C736.017351,345.636026 740.127359,349.121335 743,353" id="Fill-69" fill="#549041"></path>
            <g id="Group-73" transform="translate(67.000000, 343.000000)">
                <mask id="mask-16" fill="white">
                    <use xlink:href="#path-15"></use>
                </mask>
                <g id="Clip-71"></g>
                <path d="M676.435,26.25 C677.067,19.986 676.896,14.537 676.157,9.76 C673.327,5.944 669.278,2.515 666.272,0.245 C670.856,10.769 668.104,20.908 668.104,20.908 C670.667,25.176 676.435,26.25 676.435,26.25" id="Fill-70" fill="#89AF3F" mask="url(#mask-16)"></path>
                <path d="M8.835,3.165 C6.376,7.262 0.843,8.288 0.843,8.288 C0.843,8.288 8.391,28.609 4.951,58 L12.293,58 C13.601,46.376 14.364,26.319 8.835,3.165" id="Fill-72" fill="#A9B664" mask="url(#mask-16)"></path>
            </g>
            <path d="M71,324.884993 C70.6909384,321.17662 69.5274122,308.294847 67.7730329,301.727414 C65.9014929,294.72582 50.2605498,270.05768 39,277.325373 C46.0165073,284.988212 62.0715526,304.935602 68.6012373,333 C69.1870404,330.016895 70.0041347,327.318895 71,324.884993" id="Fill-74" fill="#5FA143"></path>
            <path d="M67.6491876,335.049124 C67.7498468,334.391481 67.8784116,333.768132 68,333.135705 C61.5568113,304.838888 45.7144405,284.7263 38.790878,277 C38.4490352,277.222913 38.1101823,277.479111 37.7753159,277.766578 C37.7753159,277.766578 27.1632396,285.323424 47.4415938,310.836352 C50.4872836,314.668234 57.1786322,321.961821 59.8306547,325.989382 C63.4105361,331.432086 65.5482994,343.559149 67.3860782,351 C66.7801295,344.943025 66.9455694,339.671792 67.6491876,335.049124" id="Fill-75" fill="#72B844"></path>
            <path d="M88.1546483,308.372171 C89.8626456,307.401101 91.5775579,306.400635 93.3952068,305.64416 C94.8957551,305.020951 96.9188774,304.391862 97.7684307,302.866175 C98.846178,300.933834 95.9330004,300.17344 93.7488581,300 C92.636536,300.507582 91.583485,301.166068 90.5827902,301.842191 C89.638403,302.483039 88.7117972,303.17288 87.8316204,303.897018 C86.5256792,304.966077 85.3116082,306.126266 84.0896344,307.284494 C81.7820105,309.474546 79.6808478,311.838038 77.6251263,314.262284 C75.9754123,316.207363 74.3928723,318.435631 73,321 C74.3790424,319.258737 75.8865056,317.626242 77.520414,316.117213 C80.7467409,313.137371 84.3326462,310.546545 88.1546483,308.372171" id="Fill-76" fill="#72B844"></path>
            <path d="M98.6281881,305.239007 C98.7975618,305.087897 98.9750491,304.946928 99.1444228,304.792775 C100.286427,303.754271 101.567379,302.277648 100.731667,300.638758 C100.068371,299.339613 98.209318,298.853829 96.8462151,299.037392 C95.8188169,299.176333 94.8431436,299.50188 93.909053,299.9329 C96.1514789,300.112407 99.1423943,300.899398 98.0358875,302.89933 C97.1636639,304.478384 95.0865548,305.129478 93.5459646,305.774486 C91.6798119,306.557421 89.9191374,307.592883 88.1655624,308.59792 C84.2415706,310.848351 80.5599758,313.529801 77.2475547,316.613875 C75.5700457,318.175688 74.022356,319.865286 72.6065141,321.667456 C72.0365261,322.71813 71.5,323.82864 71,325 C80.0609828,314.660594 97.8685423,305.62439 98.6281881,305.239007" id="Fill-77" fill="#A5CB50"></path>
            <path d="M68,335 C70.6955256,331.370231 74.5488277,328.096184 77.4080492,325.932035 C78.8158339,322.689785 80.9528093,319.411765 84.1404147,316.406002 C86.0650815,314.591614 87.9976851,312.794118 90.0255299,311.098967 C92.5772016,308.961645 95.4890043,307.174086 98,305 C97.2569199,305.377583 79.837693,314.230922 70.9743047,324.361089 C70.8800556,324.584658 70.7977116,324.827107 70.7054466,325.05465 C69.7272397,327.472178 68.9246338,330.152027 68.3492179,333.115064 C68.2281821,333.738076 68.1002017,334.352146 68,335" id="Fill-78" fill="#5FA143"></path>
            <path d="M76.2659502,345.864675 C76.2659502,345.864675 73.656477,336.120289 78,326 C75.1524037,328.18324 71.3147687,331.486167 68.6302028,335.147955 C67.9326306,339.741981 67.7686122,344.980553 68.3693542,351 C68.3693542,351 73.8363044,349.971532 76.2659502,345.864675" id="Fill-79" fill="#96C33E"></path>
            <path d="M305.118963,362.287762 C305.118963,362.287762 305.707878,364.449787 305.144525,370 C306.402974,364.148322 307.570972,361.861448 309.438982,360.280023 C310.709229,359.20307 311.926386,357.985028 313,356.75176 C305.633157,353.176806 301.515669,343.47104 299.712548,338 C298.242718,341.804352 297.419811,346.118252 297,350.311362 C297.858302,351.204593 298.666462,352.12117 299.376306,353.041807 C301.193192,355.393643 304.342264,359.542092 305.118963,362.287762" id="Fill-80" fill="#5DA344"></path>
            <g id="Group-84" transform="translate(296.000000, 326.000000)">
                <mask id="mask-18" fill="white">
                    <use xlink:href="#path-17"></use>
                </mask>
                <g id="Clip-82"></g>
                <path d="M16.91,30.477 C18.418,28.792 19.636,27.074 20.282,25.632 C28.007,8.471 24.096,0.097 18.167,0.35 C10.432,0.682 5.946,5.608 3.395,12.003 C5.229,17.393 9.417,26.955 16.91,30.477" id="Fill-81" fill="#8BC153" mask="url(#mask-18)"></path>
                <path d="M0.875,43.061 C0.875,43.061 0.123,60.514 0.084,75 L6.225,75 C6.263,67.67 6.432,59.262 6.949,54.418 C6.949,54.418 2.331,52.7 0.875,43.061" id="Fill-83" fill="#A9B664" mask="url(#mask-18)"></path>
            </g>
            <path d="M299.126451,352.678889 C298.400427,351.750769 297.573847,350.826742 296.695982,349.92625 C290.934051,344.036217 282.636067,339.268728 281,341.606936 C284.864415,343.680113 290.472493,347.469341 293.67122,353.208951 C294.026187,353.46068 294.361042,353.701152 294.677798,353.928321 C295.248963,354.338659 295.804039,354.747973 296.352076,355.153194 C301.23212,358.779719 305,362 305,362 C304.205598,359.232012 300.984749,355.049843 299.126451,352.678889" id="Fill-85" fill="#5F9140"></path>
            <path d="M281.29322,342 C281.096583,342.263891 280.989693,342.61801 281.000785,343.083701 C281.030029,344.511819 289.107269,349.707179 294,353 C290.792297,347.558211 285.16848,343.965602 281.29322,342" id="Fill-86" fill="#80AD40"></path>
            <path d="M304.279114,373 C304.485773,371.694977 304.637996,370.522583 304.749895,369.466618 C305.327534,363.930649 304.723684,361.774172 304.723684,361.774172 C304.723684,361.774172 300.946345,358.588053 296.054051,355 C295.983484,356.945891 295.988525,358.793577 296.031873,360.475224 C298.961402,362.874684 302.953466,367.093481 304.279114,373" id="Fill-87" fill="#7CAB41"></path>
            <path d="M302.529275,380 C303.201076,377.129995 303.670456,374.648457 304,372.514922 C302.714094,366.61305 298.841706,362.397572 296,360 C296.12419,365.011634 296.589659,368.510875 296.589659,368.510875 C298.013446,378.262013 302.529275,380 302.529275,380" id="Fill-88" fill="#A2C23B"></path>
            <path d="M441.494795,351.061818 C442.509336,350.170311 443.620929,349.306064 444.793554,348.479173 C445.158749,343.653118 445.092714,338.606964 444.160217,334 C440.967514,339.799342 434.234924,349.887613 425,352.370305 C425.982524,353.989759 427.151147,355.622339 428.397812,357.107512 C430.230789,359.290342 431.116261,362.119339 431.382403,369 C431.858657,362.608002 432.979255,360.292909 432.979255,360.292909 C434.437032,357.355882 438.917421,353.334506 441.494795,351.061818" id="Fill-89" fill="#539242"></path>
            <g id="Group-93" transform="translate(420.000000, 318.000000)">
                <mask id="mask-20" fill="white">
                    <use xlink:href="#path-19"></use>
                </mask>
                <g id="Clip-91"></g>
                <path d="M24.029,16.463 C22.451,8.673 18.367,2.155 9.65,0.183 C2.973,-1.326 -3.195,7.377 2.041,28.462 C2.484,30.23 3.512,32.434 4.879,34.658 C14.109,32.199 20.838,22.207 24.029,16.463" id="Fill-90" fill="#7EB04A" mask="url(#mask-20)"></path>
                <path d="M11.256,63.896 C10.916,68.53 9.804,75.883 8.6,83 L15.8,83 C18.339,67.965 20.494,52.253 20.494,52.253 C16.857,62.902 11.256,63.896 11.256,63.896" id="Fill-92" fill="#98A45A" mask="url(#mask-20)"></path>
            </g>
            <path d="M433,360 C433,360 437.872365,357.155931 444.073557,354.09924 C444.765778,353.754995 445.471904,353.413787 446.189947,353.069543 C446.591177,352.881221 447.020215,352.677711 447.468123,352.468127 C452.197475,346.68279 459.251778,343.587624 464,342.063835 C462.629461,339.09523 452.371276,342.729037 444.727046,348.152917 C443.563081,348.982142 442.459698,349.848829 441.452649,350.742853 C438.89431,353.021956 434.447011,357.054682 433,360" id="Fill-94" fill="#55803C"></path>
            <path d="M447,353 C453.28307,350.224601 463.602439,345.910666 463.940314,344.290385 C464.050579,343.762943 464.003034,343.33768 463.839154,343 C459.002677,344.464578 451.817256,347.439471 447,353" id="Fill-95" fill="#749B40"></path>
            <path d="M442.904268,360.309724 C443.293303,358.38201 443.680328,356.25208 444,354 C437.723167,357.09892 432.79137,359.98228 432.79137,359.98228 C432.79137,359.98228 431.665481,362.335981 431.186978,368.834576 C431.096505,370.069422 431.030158,371.454133 431,373 C433.712187,366.474716 439.091324,362.455051 442.904268,360.309724" id="Fill-96" fill="#6F9940"></path>
            <path d="M440.551798,370.396782 C440.551798,370.396782 441.818389,366.575883 443,361 C439.162798,363.082859 433.74944,366.985478 431.019998,373.320757 C430.968404,375.778331 431.011905,378.651481 431.206142,382 C431.206142,382 436.872414,381.009396 440.551798,370.396782" id="Fill-97" fill="#93AE3D"></path>
            <path d="M269.633617,342.356835 C269.4599,344.488523 269.254049,346.713497 269,349 C270.855666,343.800785 274.129188,336.666379 278.520328,335.093416 C287.544607,331.858172 305.10314,317.419658 308.836563,307.385442 C309.561558,305.432387 307.639618,303.653003 307.639618,303.653003 C307.610498,303.425742 307.560291,303.208405 307.506067,303 C300.473013,305.801562 278.34661,316.472903 269.633617,342.356835" id="Fill-98" fill="#5FA143"></path>
            <path d="M270.134255,329.022574 C270.238088,329.24105 270.32511,329.467506 270.400265,329.705933 C270.400265,329.705933 270.390377,330.673608 270.33401,332.312671 C270.274677,334.044511 270.166888,336.536526 269.96911,339.430574 C269.890988,340.577818 269.80001,341.777935 269.703099,343 C278.283681,316.9805 300.073828,306.253267 307,303.437032 C304.693913,294.448622 282.184844,299.679059 272.833919,314.054528 C270.376532,317.831456 269.532022,322.174025 269,327.382514 C269.032633,327.424413 269.069222,327.468308 269.100867,327.510207 C269.499388,328.039935 269.854399,328.54572 270.134255,329.022574" id="Fill-99" fill="#72B844"></path>
            <path d="M241,311.298691 C247.81515,313.028063 260.650549,317.375001 256.419327,324.916986 C257.165664,324.800468 257.952637,324.699281 258.759434,324.625691 C262.559504,324.293512 266.755044,324.609337 269,327 C268.968283,326.957072 268.931611,326.9121 268.898903,326.869173 C265.40708,322.234006 258.425416,316.276257 258.425416,316.276257 C255.676956,313.695486 253.203044,312.087742 250.996743,311.138223 C246.542513,309.221809 243.196389,310.038457 241,311.298691" id="Fill-100" fill="#A5CB50"></path>
            <path d="M240.783694,312 C240.203336,312.326693 239.710971,312.682271 239.291769,313.025896 C238.213115,313.909363 237.658464,314.711155 237.658464,314.711155 C237.658464,314.711155 237.24025,315.839641 237,317.417331 C241.111937,319.34761 246.604076,322.723108 246.668341,327 C247.833999,326.935259 249.131152,326.76992 250.568699,326.49004 C250.568699,326.49004 253.005805,325.746016 256.16465,325.270916 C260.385342,317.921315 247.581885,313.685259 240.783694,312" id="Fill-101" fill="#72B844"></path>
            <path d="M237.156787,317 C237.032979,317.837949 236.965539,318.800192 237.01788,319.785223 C237.146721,322.195492 238.057664,324.748699 240.923358,326.075538 C242.387912,326.753976 244.349711,327.118572 247,326.965276 C246.934573,322.51762 241.343096,319.007349 237.156787,317" id="Fill-102" fill="#5FA143"></path>
            <path d="M269.550747,339 C269.756826,336.175651 269.86914,333.743653 269.930963,332.053522 C269.989696,330.453934 270,329.509564 270,329.509564 C269.92169,329.276879 269.831015,329.055876 269.722823,328.842663 C269.431221,328.377293 269.061309,327.883689 268.646059,327.366719 C266.31221,325.08952 261.950541,324.788685 258,325.105098 C260.041216,327.284938 260.563627,331.933772 260.639876,335.511671 C263.810407,335.812506 267.888717,336.667308 269.550747,339" id="Fill-103" fill="#699941"></path>
            <g id="Group-107" transform="translate(258.000000, 335.000000)">
                <mask id="mask-22" fill="white">
                    <use xlink:href="#path-21"></use>
                </mask>
                <g id="Clip-105"></g>
                <path d="M11.768,4.287 C10.155,1.891 6.197,1.013 3.12,0.704 C3.175,3.452 2.986,5.583 2.986,5.583 C1.294,13.803 2.064,31.472 2.064,31.472 L9.131,26.48 C9.885,22.498 10.441,18.453 10.868,14.559 C11.121,12.255 11.326,10.013 11.499,7.865 C11.597,6.64 11.689,5.437 11.768,4.287" id="Fill-104" fill="#96C33E" mask="url(#mask-22)"></path>
                <path d="M2.064,31.472 C2.064,31.472 0.607,52.257 0.367,66 L7.01,66 C7.292,54.513 7.932,34.708 9.131,26.48 C9.131,26.48 6.212,28.552 2.064,31.472" id="Fill-106" fill="#A9B664" mask="url(#mask-22)"></path>
            </g>
            <path d="M267,361 L260,366 C264.108674,363.075321 267,361 267,361" id="Fill-108" fill="#96C33E"></path>
            <path d="M462.33355,269.808503 C462.298212,269.525881 462.233594,269.258398 462.169986,269 C453.554616,272.470206 426.444419,285.698978 415.774404,317.777691 C415.562377,320.417188 415.309964,323.170743 415,326 C417.272729,319.557206 421.283072,310.715146 426.658465,308.765048 C437.717196,304.758867 459.225838,286.869845 463.798557,274.435445 C464.69008,272.011953 462.33355,269.808503 462.33355,269.808503" id="Fill-109" fill="#5FA143"></path>
            <path d="M416.404468,299.843887 C416.529957,300.109141 416.638379,300.386453 416.731743,300.678835 C416.731743,300.678835 416.7207,301.86645 416.649422,303.87796 C416.579149,306.006021 416.441613,309.060463 416.198667,312.61125 C416.101288,314.02192 415.98885,315.498903 415.868381,317 C426.47769,285.068028 453.433646,271.89977 462,268.445438 C459.150907,257.415288 431.308499,263.831624 419.740458,281.474036 C416.702629,286.10895 415.658564,291.437141 415,297.828358 C415.040156,297.880605 415.08734,297.933857 415.126493,297.986104 C415.618408,298.633163 416.054104,299.256108 416.404468,299.843887" id="Fill-110" fill="#72B844"></path>
            <path d="M415,298 C414.961477,297.94871 414.915052,297.896433 414.875541,297.845142 C410.632085,292.392578 402.159002,285.391439 402.159002,285.391439 C392.082769,276.231171 384.989599,277.322078 381,279.539401 C389.279481,281.568331 404.859562,286.683562 399.722175,295.545952 C400.628947,295.410821 401.58412,295.293445 402.565963,295.208619 C407.176869,294.81605 412.269806,295.190864 415,298" id="Fill-111" fill="#A5CB50"></path>
            <path d="M380.728222,280 C378.138402,281.400087 376.822696,283.248556 376.822696,283.248556 C376.822696,283.248556 376.299255,284.608416 376,286.502017 C381.137034,288.815546 388.004672,292.866674 388.090898,298 C389.541521,297.921509 391.160539,297.7243 392.963167,297.390712 C392.963167,297.390712 396.006434,296.495912 399.955579,295.921945 C405.231589,287.106399 389.231108,282.018206 380.728222,280" id="Fill-112" fill="#72B844"></path>
            <path d="M376.197052,286 C375.498916,290.726053 376.063366,298.653824 388,297.956956 C387.915828,292.618719 381.211745,288.405879 376.197052,286" id="Fill-113" fill="#5FA143"></path>
            <path d="M416.475999,313 C416.714809,309.368798 416.850004,306.245184 416.919081,304.068928 C416.989145,302.011864 417,300.797353 417,300.797353 C416.908226,300.498349 416.801649,300.214758 416.678297,299.943497 C416.333897,299.342406 415.905618,298.705353 415.422077,298.04364 C412.694509,295.117307 407.606471,294.726855 403,295.135802 C405.380207,297.938835 405.991048,303.91583 406.079862,308.515969 C409.778459,308.905393 414.534926,309.999686 416.475999,313" id="Fill-114" fill="#699941"></path>
            <g id="Group-120" transform="translate(327.000000, 308.000000)">
                <mask id="mask-24" fill="white">
                    <use xlink:href="#path-23"></use>
                </mask>
                <g id="Clip-116"></g>
                <path d="M89.535,5.114 C87.568,2.194 82.748,1.129 79,0.75 C79.063,4.093 78.836,6.695 78.836,6.695 C76.779,16.71 77.713,38.235 77.713,38.235 L86.322,32.15 C87.241,27.299 87.919,22.372 88.439,17.628 C88.746,14.825 88.996,12.097 89.206,9.482 C89.326,7.988 89.438,6.518 89.535,5.114" id="Fill-115" fill="#96C33E" mask="url(#mask-24)"></path>
                <path d="M75.879,92.238 C75.879,92.238 80.148,94.486 83.52,90.834 C83.52,90.834 84.205,46.677 86.322,32.15 C86.322,32.15 82.77,34.68 77.713,38.235 C77.713,38.235 74.695,81.287 75.879,92.238" id="Fill-117" fill="#A9B664" mask="url(#mask-24)"></path>
                <path d="M86.322,32.15 L77.713,38.235 C82.77,34.68 86.322,32.15 86.322,32.15" id="Fill-118" fill="#96C33E" mask="url(#mask-24)"></path>
                <path d="M9.149,24.781 C6.434,29.303 0.331,30.437 0.331,30.437 C0.331,30.437 10.005,56.463 3.758,93 L11.884,93 C13.571,83.185 16.754,56.636 9.149,24.781" id="Fill-119" fill="#98A45A" mask="url(#mask-24)"></path>
            </g>
            <path d="M331,310.030187 C330.661691,305.924491 329.389528,291.691812 327.471774,284.43521 C325.423902,276.697707 308.316261,249.4326 296,257.464655 C303.675017,265.932528 321.236073,287.981858 328.375601,319 C329.017187,315.700816 329.911004,312.720229 331,310.030187" id="Fill-121" fill="#549041"></path>
            <path d="M327.607147,320.541534 C327.719536,319.819266 327.864324,319.136013 328,318.442757 C320.777789,287.471286 303.013357,265.455132 295.249454,257 C294.865714,257.24309 294.486024,257.526195 294.110384,257.83731 C294.110384,257.83731 282.214441,266.113375 304.951295,294.037718 C308.361418,298.232271 315.865106,306.214227 318.840863,310.623861 C322.85444,316.580067 325.253069,329.854983 327.314533,338 C326.634128,331.367544 326.81638,325.600408 327.607147,320.541534" id="Fill-122" fill="#67A643"></path>
            <path d="M349.972698,290.567122 C351.884281,289.455964 353.806891,288.315378 355.842773,287.449791 C357.520797,286.739461 359.786229,286.019999 360.740517,284.277663 C361.948413,282.069553 358.682582,281.197877 356.234713,281 C354.989728,281.579426 353.812906,282.332375 352.691216,283.106634 C351.63368,283.838273 350.598197,284.624709 349.609828,285.451736 C348.152333,286.674517 346.790066,288.001818 345.420783,289.32506 C342.835584,291.827449 340.482943,294.53076 338.180422,297.30003 C336.330987,299.523361 334.560742,302.067354 333,305 C334.546709,303.012093 336.235759,301.141897 338.063141,299.421885 C341.675803,296.014333 345.689427,293.053275 349.972698,290.567122" id="Fill-123" fill="#67A643"></path>
            <path d="M361.388895,287.7214 C361.578927,287.558114 361.768959,287.402746 361.95899,287.23847 C363.213402,286.120211 364.622466,284.528917 363.706675,282.765432 C362.976873,281.368102 360.926957,280.841629 359.42793,281.040541 C358.300881,281.189972 357.228415,281.541284 356.19537,282.004421 C358.66376,282.197395 361.956969,283.047471 360.738947,285.200863 C359.776659,286.900023 357.492235,287.601657 355.800145,288.294384 C353.747196,289.138522 351.808469,290.250844 349.88086,291.334467 C345.561683,293.759012 341.514412,296.646695 337.871465,299.969806 C336.028764,301.647196 334.325554,303.471047 332.765879,305.409694 C332.14019,306.541808 331.547857,307.738247 331,309 C340.968577,297.866884 360.553969,288.134067 361.388895,287.7214" id="Fill-124" fill="#95B849"></path>
            <path d="M328,321 C330.964492,317.003752 335.205555,313.405642 338.347047,311.023739 C339.897522,307.456333 342.247955,303.8503 345.754322,300.545348 C347.871393,298.5497 349.999341,296.570888 352.226171,294.706963 C355.036407,292.356753 358.238217,290.390816 361,288 C360.183232,288.412995 341.023792,298.153541 331.272016,309.295498 C331.16819,309.540126 331.077218,309.805552 330.976358,310.055132 C329.900518,312.714346 329.017499,315.660774 328.383663,318.922149 C328.251161,319.608493 328.109759,320.284934 328,321" id="Fill-125" fill="#549041"></path>
            <path d="M336.094012,332.246394 C336.094012,332.246394 335.75517,330.95753 335.503993,328.808065 C334.24614,327.0004 334.245155,324.5895 334.499287,322.812352 C334.699243,321.414641 335.047935,320.409591 335.047935,320.409591 C335.047935,320.409591 335.196671,320.18376 335.477398,319.854169 C335.815255,316.799346 336.55795,313.420018 338,310 C334.870634,312.446503 330.645941,316.142198 327.692891,320.24683 C326.923601,325.391099 326.7463,331.255586 327.408224,338 C327.408224,338 333.419719,336.846431 336.094012,332.246394" id="Fill-126" fill="#89AF3F"></path>
            <path d="M172.773404,321.776973 C172.561374,324.417385 172.309967,327.169833 172,330 C174.272758,323.555416 178.282141,314.713668 183.659621,312.764649 C188.920989,310.858021 196.549014,305.805305 203.592443,299.695819 C203.602539,299.687745 203.613646,299.677651 203.623742,299.668567 C204.125546,299.232536 204.623311,298.792467 205.118048,298.346342 C206.512396,297.090734 207.871406,295.800807 209.176904,294.489685 C214.561452,289.079666 218.997923,283.334549 220.799167,278.436262 C221.688683,276.012856 219.335152,273.807466 219.335152,273.807466 C219.295775,273.526871 219.237214,273.25738 219.168557,273 C210.556108,276.471092 183.446581,289.698387 172.773404,321.776973" id="Fill-127" fill="#5FA143"></path>
            <path d="M173.406536,303.84105 C173.530022,304.109316 173.640457,304.38562 173.734829,304.677999 C173.734829,304.677999 173.721777,305.866606 173.650497,307.876086 C173.577208,310.00513 173.441675,313.05954 173.197714,316.610291 C173.101335,318.021951 172.988892,319.497914 172.867414,321 C183.480188,289.067354 210.436292,275.900236 219,272.444935 C216.151789,261.415904 188.309196,267.831169 176.741664,285.473399 C173.701698,290.109269 172.657588,295.43841 172,301.830566 C172.039154,301.881807 172.084332,301.935059 172.123486,301.9863 C172.619438,302.632348 173.054149,303.255287 173.406536,303.84105" id="Fill-128" fill="#72B844"></path>
            <path d="M138,283.537682 C146.27772,285.565815 161.861053,290.682508 156.723907,299.544737 C157.630811,299.41058 158.585135,299.292207 159.566132,299.208359 C164.180672,298.814767 169.275337,299.190603 172,302 C171.961471,301.949691 171.917015,301.89741 171.878487,301.847101 C167.637378,296.390083 159.1601,289.389278 159.1601,289.389278 C157.791841,288.146357 156.480881,287.095792 155.22228,286.207991 C147.216237,280.550725 141.448803,281.621018 138,283.537682" id="Fill-129" fill="#A5CB50"></path>
            <path d="M137.729313,284 C137.606566,284.065744 137.501064,284.136393 137.383389,284.205081 C135.028877,285.573921 133.821695,287.247928 133.821695,287.247928 C133.821695,287.247928 133.7588,287.416703 133.666486,287.702246 C133.487945,288.250763 133.197816,289.25556 133,290.502726 C138.138131,292.815526 145.005881,296.867096 145.086021,302 C146.542755,301.922481 148.161799,301.725251 149.965471,301.389664 C149.965471,301.389664 153.005743,300.496729 156.955967,299.9227 C162.231048,291.107174 146.229294,286.017444 137.729313,284" id="Fill-130" fill="#72B844"></path>
            <path d="M133.19795,290 C132.634296,293.794361 132.893834,299.649189 139.192092,301.450439 C140.738424,301.893353 142.645335,302.094399 145,301.957647 C144.921742,296.619211 138.215357,292.405409 133.19795,290" id="Fill-131" fill="#5FA143"></path>
            <path d="M173.472201,317 C173.71193,313.368672 173.845113,310.244949 173.917131,308.067591 C173.987175,306.01251 174,304.79693 174,304.79693 C173.907265,304.497915 173.798746,304.215342 173.677401,303.940988 C173.331125,303.341932 172.903953,302.704857 172.416602,302.044149 C169.695723,299.117714 164.608132,298.726221 160,299.136209 C162.379536,301.938312 162.992178,307.915515 163.080967,312.515813 C166.777535,312.905251 171.532662,313.999582 173.472201,317" id="Fill-132" fill="#699941"></path>
            <g id="Group-138" transform="translate(136.000000, 312.000000)">
                <mask id="mask-26" fill="white">
                    <use xlink:href="#path-25"></use>
                </mask>
                <g id="Clip-134"></g>
                <path d="M37.067,5.051 C35.101,2.131 30.281,1.066 26.534,0.687 C26.599,4.031 26.369,6.632 26.369,6.632 C24.31,16.648 25.245,38.172 25.245,38.172 L33.856,32.087 C34.775,27.237 35.453,22.31 35.972,17.567 C36.279,14.763 36.528,12.036 36.738,9.42 C36.859,7.925 36.971,6.456 37.067,5.051" id="Fill-133" fill="#96C33E" mask="url(#mask-26)"></path>
                <path d="M25.245,38.172 C25.245,38.172 22.688,74.666 23.205,89 L31.081,89 C31.235,80.636 31.992,44.878 33.856,32.087 C33.856,32.087 30.299,34.618 25.245,38.172" id="Fill-135" fill="#A9B664" mask="url(#mask-26)"></path>
                <path d="M33.856,32.087 L25.245,38.172 C30.299,34.618 33.856,32.087 33.856,32.087" id="Fill-136" fill="#96C33E" mask="url(#mask-26)"></path>
                <path d="M0.954,65.542 C0.954,65.542 3.406,74.625 3.784,89 L8.059,89 C7.959,81.067 7.313,71.661 5.547,61.495 C4.134,64.731 0.954,65.542 0.954,65.542" id="Fill-137" fill="#A9B664" mask="url(#mask-26)"></path>
            </g>
            <path d="M139,356.593412 C138.826011,353.660974 138.171573,343.495389 137.184974,338.31115 C136.133128,332.784094 127.334798,313.308467 121,319.046411 C124.946397,325.095189 133.977043,340.844801 137.650593,363 C137.980778,360.644255 138.440466,358.514389 139,356.593412" id="Fill-139" fill="#5FA143"></path>
            <path d="M136.79732,364.500043 C136.856227,363.982838 136.93011,363.492644 137,362.994446 C133.289849,340.818652 124.169227,325.054401 120.18351,319 C119.985822,319.174069 119.791129,319.373148 119.597434,319.599238 C119.597434,319.599238 113.488065,325.523587 125.164658,345.520517 C126.917894,348.523708 130.77082,354.240975 132.297413,357.398227 C134.358165,361.660917 135.589224,371.168688 136.647556,377 C136.298106,372.252117 136.393955,368.121479 136.79732,364.500043" id="Fill-140" fill="#72B844"></path>
            <path d="M149.091745,343.776111 C150.117866,342.991203 151.14605,342.181201 152.237142,341.567928 C153.138479,341.065065 154.35023,340.555175 154.861744,339.3206 C155.506293,337.757808 153.76034,337.141524 152.449585,337 C151.782349,337.409518 151.150175,337.943496 150.548941,338.491527 C149.982769,339.01045 149.427942,339.567515 148.898896,340.154691 C148.116156,341.021905 147.386012,341.958375 146.653804,342.896853 C145.268798,344.670426 144.006514,346.582512 142.775169,348.545787 C141.785142,350.121627 140.835335,351.924308 140,354 C140.828116,352.591781 141.732547,351.265868 142.712261,350.046348 C144.647969,347.635414 146.798183,345.536636 149.091745,343.776111" id="Fill-141" fill="#72B844"></path>
            <path d="M154.655332,340.800857 C154.753328,340.686347 154.852323,340.5748 154.947319,340.456342 C155.595292,339.657738 156.321261,338.521528 155.848281,337.261925 C155.471297,336.263917 154.419342,335.8888 153.646375,336.027988 C153.0664,336.135588 152.511423,336.387311 151.982446,336.718006 C153.253392,336.857194 154.946319,337.463304 154.321346,339.000296 C153.825367,340.21449 152.650417,340.715962 151.776455,341.210524 C150.7185,341.813672 149.721542,342.610302 148.726585,343.382253 C146.50268,345.113714 144.417769,347.177844 142.540849,349.548977 C141.590889,350.748364 140.713927,352.052389 139.910961,353.43736 C139.588975,354.246822 139.283988,355.09972 139,356 C144.135781,348.04851 154.22535,341.096015 154.655332,340.800857" id="Fill-142" fill="#A5CB50"></path>
            <path d="M137,365 C138.528826,362.093165 140.713003,359.476007 142.331818,357.743976 C143.129977,355.149952 144.341887,352.527765 146.147526,350.123842 C147.238147,348.672436 148.332681,347.234106 149.481991,345.877247 C150.927675,344.16835 152.577791,342.738066 154,341 C153.579402,341.300742 143.710012,348.38477 138.686306,356.486694 C138.632509,356.663719 138.586536,356.857843 138.533717,357.038892 C137.980092,358.972088 137.525259,361.115502 137.198562,363.486233 C137.130092,363.987134 137.05771,364.479988 137,365" id="Fill-143" fill="#5FA143"></path>
            <path d="M141.960146,373.893247 C141.960146,373.893247 140.393144,366.095794 143,358 C141.2927,359.747425 138.989135,362.387843 137.376742,365.320513 C136.959975,368.993962 136.860941,373.183926 137.222002,378 C137.222002,378 140.502494,377.177026 141.960146,373.893247" id="Fill-144" fill="#96C33E"></path>
            <path d="M661.627915,360.808395 C661.627915,360.808395 662.252843,363.103213 661.654279,369 C662.99104,362.782725 664.232108,360.352857 666.216255,358.668781 C667.564733,357.527923 668.863412,356.233875 670,354.921686 C662.172774,351.125207 657.796324,340.813137 655.881505,335 C654.315279,339.039364 653.448191,343.625978 653,348.080567 C653.912981,349.028931 654.765422,350.000474 655.523148,350.980081 C657.454566,353.481503 660.799885,357.89074 661.627915,360.808395" id="Fill-145" fill="#5DA344"></path>
            <g id="Group-149" transform="translate(652.000000, 322.000000)">
                <mask id="mask-28" fill="white">
                    <use xlink:href="#path-27"></use>
                </mask>
                <g id="Clip-147"></g>
                <path d="M18.678,32.826 C20.295,31.027 21.596,29.185 22.291,27.645 C30.557,9.277 26.371,0.318 20.031,0.586 C11.752,0.942 6.951,6.213 4.219,13.059 C6.18,18.827 10.662,29.059 18.678,32.826" id="Fill-146" fill="#8BC153" mask="url(#mask-28)"></path>
                <path d="M1.521,46.293 C1.521,46.293 0.765,63.813 0.679,79 L7.256,79 C7.312,71.526 7.503,63.309 8.021,58.45 C8.021,58.45 3.074,56.613 1.521,46.293" id="Fill-148" fill="#A9B664" mask="url(#mask-28)"></path>
            </g>
            <path d="M655.636143,351.232507 C654.846259,350.258963 653.95764,349.293431 653.005912,348.350936 C646.761148,342.179147 637.775203,337.186227 636,339.636113 C640.186587,341.805554 646.264417,345.776853 649.725248,351.787387 C650.108993,352.050805 650.474416,352.302204 650.820499,352.544588 C651.435305,352.972266 652.036879,353.400946 652.629292,353.823617 C657.91622,357.62064 662,361 662,361 C661.136828,358.100401 657.649532,353.71845 655.636143,351.232507" id="Fill-150" fill="#5F9140"></path>
            <path d="M636.317996,339 C636.107957,339.289812 635.992283,339.675569 636.0004,340.181009 C636.033885,341.740851 644.730744,347.406528 650,351 C646.550073,345.064293 640.491393,341.142433 636.317996,339" id="Fill-151" fill="#80AD40"></path>
            <path d="M662.196699,372 C662.427973,370.624028 662.599597,369.38086 662.722036,368.270496 C663.363533,362.428106 662.69378,360.154457 662.69378,360.154457 C662.69378,360.154457 658.495272,356.785421 653.059814,353 C652.982374,355.052975 652.98656,357.006096 653.035745,358.78148 C656.291368,361.31275 660.725337,365.765188 662.196699,372" id="Fill-152" fill="#7CAB41"></path>
            <path d="M660.346813,380 C661.098355,376.985679 661.630912,374.379289 662,372.139144 C660.554489,365.941771 656.198424,361.51607 653,359 C653.14085,364.257444 653.664154,367.933784 653.664154,367.933784 C655.260795,378.176718 660.346813,380 660.346813,380" id="Fill-153" fill="#A2C23B"></path>
            <path d="M651.985535,287.794161 C653.481618,287.594086 655.517732,288.128285 656.247773,289.551816 C657.161825,291.344484 655.759746,292.965089 654.503676,294.102513 C654.319665,294.269575 654.126655,294.427634 653.939644,294.589694 C653.308609,295.135898 652.649572,295.655092 651.982534,296.167283 C660.239997,307.546526 675.572856,319.870121 684.341347,323.157347 C689.718648,325.1761 693.727873,334.330513 696,341 C695.690983,338.070908 695.438969,335.222846 695.226957,332.490827 C684.558359,299.283445 657.447841,285.59234 648.831358,282 C648.765354,282.2681 648.702351,282.544203 648.665349,282.834311 C648.665349,282.834311 646.312217,285.118163 647.200267,287.625097 C647.388277,288.151294 647.61229,288.690495 647.855303,289.234698 C648.15732,289.073638 648.463337,288.91958 648.773355,288.776527 C649.794412,288.304351 650.862472,287.944216 651.985535,287.794161" id="Fill-154" fill="#549041"></path>
            <path d="M695.132889,333 C695.012567,331.44166 694.899207,329.909259 694.80275,328.443701 C694.55813,324.760352 694.423887,321.591794 694.350301,319.386972 C694.281688,317.296881 694.268761,316.068765 694.268761,316.068765 C694.359251,315.766475 694.470623,315.478152 694.592933,315.204794 C694.945943,314.594228 695.381487,313.947747 695.872718,313.277321 C695.912493,313.223448 695.95923,313.166581 696,313.112708 C695.341712,306.485273 694.296604,300.961247 691.257738,296.156532 C679.69195,277.862497 651.848937,271.209124 649,282.646262 C657.567693,286.228848 684.524701,299.88278 695.132889,333" id="Fill-155" fill="#67A643"></path>
            <path d="M708.805197,310.071096 C709.81245,310.157386 710.793513,310.282358 711.726229,310.424191 C706.440169,301.119737 722.477639,295.745947 731,293.615474 C726.89444,291.287625 719.591861,290.145025 709.218171,299.757941 C709.218171,299.757941 700.499396,307.107477 696.128928,312.836346 C696.087631,312.889906 696.04029,312.946441 696,313 C698.807212,310.0463 704.051974,309.657498 708.805197,310.071096" id="Fill-156" fill="#95B849"></path>
            <path d="M711.04361,309.806357 C714.994806,310.411295 718.038594,311.356386 718.038594,311.356386 C719.842358,311.707448 721.459213,311.916697 722.916292,312 C722.996683,306.580354 729.866057,302.304139 735,299.862571 C734.70356,297.865285 734.178006,296.42831 734.178006,296.42831 C734.178006,296.42831 732.864625,294.476643 730.272029,293 C721.769722,295.130174 705.769988,300.50321 711.04361,309.806357" id="Fill-157" fill="#67A643"></path>
            <path d="M723,311.956886 C734.939079,312.654428 735.504336,304.724528 734.800709,300 C729.787002,302.40525 723.078508,306.617856 723,311.956886" id="Fill-158" fill="#549041"></path>
            <path d="M695.576295,313.042492 C695.093536,313.703684 694.665503,314.341262 694.318582,314.943419 C694.198381,315.213013 694.088929,315.497365 694,315.795492 C694,315.795492 694.012704,317.006694 694.080134,319.068 C694.15245,321.242457 694.284378,324.367378 694.52478,328 C696.461678,325.000037 701.217925,323.903953 704.916795,323.515306 C705.004747,318.914509 705.615524,312.937212 708,310.136984 C703.388385,309.726691 698.299874,310.112386 695.576295,313.042492" id="Fill-159" fill="#5D883E"></path>
            <g id="Group-165" transform="translate(619.000000, 323.000000)">
                <mask id="mask-30" fill="white">
                    <use xlink:href="#path-29"></use>
                </mask>
                <g id="Clip-161"></g>
                <path d="M75.557,5.321 C75.654,6.79 75.768,8.326 75.889,9.888 C76.101,12.619 76.353,15.466 76.662,18.394 C77.187,23.347 77.869,28.493 78.797,33.558 L87.49,39.91 C87.49,39.91 88.434,17.43 86.354,6.969 C86.354,6.969 86.123,4.254 86.191,0.763 C82.406,1.158 77.539,2.272 75.557,5.321" id="Fill-160" fill="#89AF3F" mask="url(#mask-30)"></path>
                <path d="M78.797,33.558 C80.088,42.734 80.854,63.234 81.257,78 L89.438,78 C88.921,61.03 87.49,39.91 87.49,39.91 C82.389,36.198 78.797,33.558 78.797,33.558" id="Fill-162" fill="#98A45A" mask="url(#mask-30)"></path>
                <path d="M87.49,39.91 L78.797,33.558 C78.797,33.558 82.389,36.198 87.49,39.91" id="Fill-163" fill="#89AF3F" mask="url(#mask-30)"></path>
                <path d="M9.596,17.424 C6.863,21.972 0.719,23.117 0.719,23.117 C0.719,23.117 9.041,45.535 5.32,78 L13.477,78 C14.904,65.036 15.682,42.915 9.596,17.424" id="Fill-164" fill="#98A45A" mask="url(#mask-30)"></path>
            </g>
            <path d="M619.224681,315.954204 C619.224681,315.954204 619.648249,317.082676 619.886878,318.658956 C620.092696,320.009342 620.157325,321.686129 619.717849,323.259423 C619.94753,324.163993 620.164285,325.079508 620.376069,326 C621.017386,322.698172 621.910258,319.712794 623,317.020979 C622.661941,312.919069 621.38925,298.687773 619.467288,291.4343 C617.423028,283.696201 600.316269,256.43572 588,264.463401 C594.621971,271.772601 608.608647,289.195267 616.907986,313.763931 C618.442175,314.822745 619.224681,315.954204 619.224681,315.954204" id="Fill-166" fill="#549041"></path>
            <path d="M616.179446,313.475193 C616.475757,313.644746 616.745311,313.821364 617,314 C608.728063,289.082758 594.787564,271.412902 588.187456,264 C587.807901,264.252311 587.436273,264.532881 587.066627,264.852812 C587.066627,264.852812 575.343012,273.255783 597.740766,301.61354 C599.962604,304.423277 603.928615,308.901296 607.214795,312.912034 C611.157022,311.548545 614.155809,312.328691 616.179446,313.475193" id="Fill-167" fill="#67A643"></path>
            <path d="M619.620427,328.764312 C619.729016,328.05511 619.86891,327.383182 620,326.701445 C619.791626,325.794097 619.57836,324.891653 619.352377,324 C618.836823,325.853933 617.589513,327.546995 615,328.383717 C616.75406,334.278045 618.105068,341.082665 619.331833,346 C618.670515,339.453362 618.850518,333.756198 619.620427,328.764312" id="Fill-168" fill="#67A643"></path>
            <path d="M641.973543,298.568146 C643.885606,297.458314 645.803645,296.314209 647.842183,295.449326 C649.523205,294.737662 651.7888,294.018942 652.741844,292.275064 C653.945847,290.066487 650.682393,289.197572 648.239533,289 C647.930815,289.144147 647.62608,289.299383 647.325328,289.461674 C646.413115,289.954597 645.535757,290.523122 644.693254,291.10475 C643.631661,291.836574 642.597951,292.625856 641.610052,293.452434 C640.149116,294.674157 638.787767,295.999706 637.420443,297.324247 C634.837166,299.832206 632.477959,302.532698 630.177508,305.299719 C628.333164,307.523416 626.559526,310.068672 625,313 C626.545584,311.01218 628.234573,309.143307 630.062984,307.419589 C633.67499,304.012474 637.689327,301.052921 641.973543,298.568146" id="Fill-169" fill="#67A643"></path>
            <path d="M653.38792,294.957893 C653.575698,294.792944 653.769501,294.632068 653.954266,294.462027 C655.215493,293.304328 656.623326,291.654836 655.705523,289.830212 C654.972486,288.381306 652.928014,287.837584 651.425789,288.041225 C650.298116,288.193956 649.225672,288.56051 648.200424,289.041103 C650.663631,289.240671 653.954266,290.118364 652.740236,292.349252 C651.779254,294.110747 649.494787,294.836727 647.799764,295.55558 C645.744246,296.4292 643.810232,297.584863 641.882243,298.705907 C637.562343,301.215783 633.51457,304.205233 629.872478,307.646767 C628.028838,309.387898 626.325781,311.27565 624.767323,313.283551 C624.139723,314.461614 623.549276,315.693643 623,317 C632.965294,305.469844 652.550449,295.38554 653.38792,294.957893" id="Fill-170" fill="#95B849"></path>
            <path d="M620,329 C623.051801,324.878849 627.41947,321.1763 630.659542,318.725503 C632.256803,315.051334 634.676987,311.331555 638.292587,307.926994 C640.470854,305.871486 642.665317,303.83625 644.963025,301.913519 C647.206073,300.035385 649.689015,298.389358 652.019113,296.59839 C652.694254,296.079446 653.361298,295.553406 654,295 C653.15582,295.425697 633.413754,305.464033 623.368622,316.941631 C623.261328,317.192994 623.169217,317.466657 623.063948,317.723088 C621.95457,320.464779 621.045609,323.50547 620.392736,326.868475 C620.2571,327.572902 620.112355,328.267193 620,329" id="Fill-171" fill="#549041"></path>
            <path d="M619.69541,328.243828 C618.92533,333.386459 618.745286,339.255666 619.406753,346 C619.406753,346 625.41866,344.842933 628.092902,340.247004 C628.092902,340.247004 625.221982,329.332178 630,318 C626.86782,320.443482 622.64559,324.134979 619.69541,328.243828" id="Fill-172" fill="#89AF3F"></path>
            <path d="M543.848327,367.600154 C544.821025,364.255295 548.757571,359.19846 551.028196,356.332152 C551.91735,355.208856 552.925854,354.092568 554,353.004313 C553.471878,347.894417 552.446467,342.635348 550.608484,338 C548.354767,344.668695 543.206823,356.496342 534,360.85437 C535.337709,362.358106 536.863394,363.840816 538.449749,365.154332 C540.785022,367.082557 542.246059,369.868772 543.817495,377 C543.114327,370.236196 543.848327,367.600154 543.848327,367.600154" id="Fill-173" fill="#5DA344"></path>
            <g id="Group-177" transform="translate(524.000000, 323.000000)">
                <mask id="mask-32" fill="white">
                    <use xlink:href="#path-31"></use>
                </mask>
                <g id="Clip-175"></g>
                <path d="M26.215,15.042 C23.063,7.139 17.518,1.051 7.961,0.641 C0.635,0.331 -4.199,10.676 5.348,31.882 C6.145,33.665 7.65,35.79 9.516,37.87 C18.773,33.517 23.949,21.703 26.215,15.042" id="Fill-174" fill="#8BC153" mask="url(#mask-32)"></path>
                <path d="M21.822,67.454 C22.118,70.217 22.321,73.923 22.459,78 L30.108,78 C29.821,64.866 29.326,53.419 29.326,53.419 C27.531,65.33 21.822,67.454 21.822,67.454" id="Fill-176" fill="#A9B664" mask="url(#mask-32)"></path>
            </g>
            <path d="M544,367 C544,367 548.555401,363.166842 554.450973,358.848625 C555.113684,358.367508 555.783278,357.87949 556.47352,357.392458 C556.855021,357.120352 557.258154,356.835428 557.688818,356.536702 C561.553977,349.701496 568.329559,345.189057 573,342.722349 C571.021699,339.939169 560.997457,345.614963 554.036041,352.626645 C552.97413,353.698312 551.977114,354.797584 551.098088,355.903758 C548.853326,358.726374 544.961619,363.706127 544,367" id="Fill-178" fill="#5F9140"></path>
            <path d="M557,357 C563.024107,352.805595 572.96519,346.19626 572.999338,344.379817 C573.010386,343.786326 572.882833,343.335712 572.63978,343 C567.869105,345.499857 560.94811,350.072937 557,357" id="Fill-179" fill="#80AD40"></path>
            <path d="M553.959501,365.691821 C554.014342,363.637113 554.020324,361.378135 553.934574,359 C547.955965,363.385781 543.336403,367.278913 543.336403,367.278913 C543.336403,367.278913 542.600544,369.915388 543.305493,376.680306 C543.441099,377.971007 543.628553,379.402895 543.881817,381 C545.502103,373.780483 550.379914,368.624687 553.959501,365.691821" id="Fill-180" fill="#7CAB41"></path>
            <path d="M553.261898,376.212599 C553.261898,376.212599 553.845652,372.013999 554,366 C550.448006,368.877328 545.607797,373.935492 544,381.018296 C544.411596,383.578323 544.999307,386.554869 545.83734,390 C545.83734,390 551.485901,387.913471 553.261898,376.212599" id="Fill-181" fill="#A2C23B"></path>
            <path d="M549.495198,305 C549.43997,305.208405 549.390767,305.426735 549.361647,305.652011 C549.361647,305.652011 547.437712,307.431395 548.163707,309.385442 C551.897104,319.418666 569.456523,333.85718 578.479736,337.093416 C582.870846,338.666379 586.145351,345.800785 588,351 C587.746956,348.715482 587.541107,346.4915 587.368395,344.359812 C578.655461,318.472903 556.528204,307.801562 549.495198,305" id="Fill-182" fill="#5FA143"></path>
            <path d="M587.29789,344 C587.19999,342.77704 587.109012,341.575027 587.03089,340.426881 C586.834101,337.534071 586.725323,335.042264 586.66599,333.310568 C586.609623,331.671641 586.599735,330.704046 586.599735,330.704046 C586.673901,330.466636 586.762901,330.238204 586.866734,330.020745 C587.144612,329.54393 587.500612,329.038187 587.898145,328.508503 C587.929789,328.466607 587.966378,328.422716 588,328.380821 C587.466989,323.171767 586.623468,318.830557 584.16707,315.053944 C574.815156,300.678672 552.306087,295.448671 550,304.437331 C556.926172,307.253332 578.717308,317.979672 587.29789,344" id="Fill-183" fill="#72B844"></path>
            <path d="M598.239841,326.627293 C599.046581,326.699843 599.832507,326.801005 600.579782,326.917495 C596.34886,319.377355 609.182359,315.03148 616,313.30253 C613.976214,312.141723 610.977205,311.351842 607.034688,312.732345 C604.578791,313.59171 601.758176,315.288983 598.572844,318.27888 C598.572844,318.27888 591.592666,324.234149 588.102081,328.869205 C588.068385,328.912122 588.031715,328.957083 588,329 C590.245788,326.609922 594.44004,326.294174 598.239841,326.627293" id="Fill-184" fill="#A5CB50"></path>
            <path d="M620,318.41769 C619.762705,316.839896 619.341505,315.710339 619.341505,315.710339 C619.341505,315.710339 618.563374,314.577794 617.037763,313.517963 C616.783659,313.341656 616.514724,313.167342 616.219094,313 C609.417615,314.685371 596.61454,318.921708 600.835432,326.271798 C603.995415,326.746929 606.432637,327.491002 606.432637,327.491002 C607.869262,327.770901 609.166477,327.937247 610.33318,328 C610.396458,323.72382 615.888858,320.347101 620,318.41769" id="Fill-185" fill="#72B844"></path>
            <path d="M619.667915,323.789112 C620.112718,322.151304 620.047305,320.405759 619.838993,319 C615.654628,321.0066 610.064406,324.518408 610,328.965663 C612.152563,329.091011 613.83919,328.865178 615.190705,328.418691 C617.854489,327.535041 619.137573,325.747023 619.667915,323.789112" id="Fill-186" fill="#5FA143"></path>
            <path d="M587.353027,329.366483 C586.938772,329.883506 586.567797,330.377161 586.278231,330.84258 C586.17003,331.054842 586.077286,331.277815 586,331.50955 C586,331.50955 586.010305,332.454019 586.069043,334.053774 C586.130872,335.74408 586.244225,338.176331 586.449292,341 C588.109403,338.668039 592.189094,337.813148 595.360927,337.512282 C595.436153,333.934011 595.959639,329.285667 598,327.1056 C594.04912,326.78818 589.688106,327.089047 587.353027,329.366483" id="Fill-187" fill="#699941"></path>
            <g id="Group-191" transform="translate(586.000000, 337.000000)">
                <mask id="mask-34" fill="white">
                    <use xlink:href="#path-33"></use>
                </mask>
                <g id="Clip-189"></g>
                <path d="M9.738,5.235 C9.738,5.235 9.549,3.103 9.605,0.355 C6.527,0.664 2.568,1.542 0.957,3.937 C1.036,5.088 1.128,6.293 1.227,7.519 C1.399,9.667 1.604,11.908 1.856,14.21 C2.283,18.103 2.84,22.148 3.594,26.13 L10.66,31.123 C10.66,31.123 11.43,13.455 9.738,5.235" id="Fill-188" fill="#96C33E" mask="url(#mask-34)"></path>
                <path d="M3.594,26.13 C4.737,33.976 5.372,52.35 5.673,64 L12.323,64 C12.005,50.306 10.66,31.123 10.66,31.123 C6.512,28.203 3.594,26.13 3.594,26.13" id="Fill-190" fill="#A9B664" mask="url(#mask-34)"></path>
            </g>
            <path d="M590,363 C590,363 592.890744,365.075906 597,368 L590,363" id="Fill-192" fill="#96C33E"></path>
            <path d="M362.520659,345.226702 C362.377675,347.080632 362.208067,349.013008 362,351 C363.529437,346.476888 366.228386,340.273621 369.852294,338.907254 C377.296344,336.09508 391.787047,323.540589 394.864657,314.814111 C395.464204,313.115089 393.877573,311.567003 393.877573,311.567003 C393.851935,311.371382 393.810519,311.182712 393.76713,311 C387.964933,313.437813 369.706352,322.718385 362.520659,345.226702" id="Fill-193" fill="#5FA143"></path>
            <path d="M362.955609,332.929464 C363.038877,333.114845 363.116198,333.310138 363.175676,333.515345 C363.175676,333.515345 363.17072,334.352035 363.121155,335.767666 C363.070599,337.264587 362.981382,339.415791 362.813853,341.914955 C362.747437,342.907285 362.671107,343.944225 362.588829,345 C369.812397,322.529334 388.167219,313.264285 394,310.83055 C392.060035,303.071344 373.100524,307.583917 365.224683,320.003403 C363.157833,323.261933 362.448065,327.017122 362,331.51185 C362.026765,331.547539 362.057495,331.585209 362.08426,331.620898 C362.417335,332.074931 362.715715,332.516076 362.955609,332.929464" id="Fill-194" fill="#72B844"></path>
            <path d="M351.216937,330.284519 C351.855993,330.190613 352.53044,330.10542 353.222077,330.04927 C356.477017,329.772392 360.07272,330.031844 362,332 C361.972699,331.965148 361.941352,331.92836 361.914051,331.893509 C358.91898,328.074337 352.935917,323.171857 352.935917,323.171857 C345.821361,316.763007 340.814072,317.524905 338,319.077744 C343.843522,320.497953 354.841963,324.078971 351.216937,330.284519" id="Fill-195" fill="#A5CB50"></path>
            <path d="M335,323.692954 C338.493351,325.365887 343.164157,328.291533 343.218178,332 C344.20556,331.941388 345.307986,331.798334 346.534461,331.558918 C346.534461,331.558918 348.60126,330.912196 351.2903,330.499924 C354.876687,324.13205 343.995479,320.457359 338.214243,319 C337.157834,319.604004 336.420549,320.322253 335.993384,320.804065 C335.708274,321.125936 335.557215,321.346477 335.557215,321.346477 C335.557215,321.346477 335.203079,322.327984 335,323.692954" id="Fill-196" fill="#72B844"></path>
            <path d="M335.129316,324 C334.882129,325.665429 334.883088,327.92477 336.106565,329.618798 C337.194951,331.126932 339.24909,332.18987 343,331.971563 C342.948263,328.412863 338.474955,325.605371 335.129316,324" id="Fill-197" fill="#5FA143"></path>
            <path d="M362.626866,343 C362.799632,340.377042 362.891638,338.119279 362.943774,336.548209 C362.994889,335.062456 363,334.184322 363,334.184322 C362.938663,333.96895 362.858925,333.763982 362.773053,333.569419 C362.525659,333.135554 362.217951,332.672557 361.874463,332.196034 C359.925987,330.080812 356.290738,329.801973 353,330.09954 C354.701084,332.121122 355.138622,336.438963 355.200981,339.76214 C357.841546,340.042019 361.242691,340.832756 362.626866,343" id="Fill-198" fill="#699941"></path>
            <g id="Group-204" transform="translate(352.000000, 339.000000)">
                <mask id="mask-36" fill="white">
                    <use xlink:href="#path-35"></use>
                </mask>
                <g id="Clip-200"></g>
                <path d="M10.214,3.515 C8.86,1.432 5.533,0.672 2.95,0.403 C2.994,2.787 2.835,4.642 2.835,4.642 C1.42,11.788 2.062,27.143 2.062,27.143 L8,22.798 C8.634,19.339 9.101,15.824 9.459,12.441 C9.67,10.44 9.842,8.494 9.987,6.627 C10.07,5.562 10.147,4.516 10.214,3.515" id="Fill-199" fill="#96C33E" mask="url(#mask-36)"></path>
                <path d="M2.062,27.143 C2.062,27.143 0.447,50.998 0.622,62 L6.111,62 C6.263,54.206 6.798,31.337 8,22.798 C8,22.798 5.547,24.603 2.062,27.143" id="Fill-201" fill="#A9B664" mask="url(#mask-36)"></path>
                <path d="M8,22.798 L2.062,27.143 C5.547,24.603 8,22.798 8,22.798" id="Fill-202" fill="#96C33E" mask="url(#mask-36)"></path>
                <path d="M130.109,34.401 C130.109,34.401 134.053,45.021 134.943,62 L142.421,62 C142.133,52.412 140.963,41.262 138.102,29.277 C135.645,33.371 130.109,34.401 130.109,34.401" id="Fill-203" fill="#A9B664" mask="url(#mask-36)"></path>
            </g>
            <path d="M480.92742,345.35351 C481.127363,345.528252 481.324277,345.728102 481.52119,345.954062 C481.52119,345.954062 483.460033,347.825011 483.087412,353 C483.612515,350.869949 484.254757,348.891543 485,347.065785 C484.688977,343.329912 483.523652,330.415036 481.773644,323.827044 C479.900439,316.798178 464.263467,292.035963 453,299.329955 C459.094228,306.008332 472.003692,321.986222 479.573259,344.52499 C480.033734,344.695715 480.487141,344.960841 480.92742,345.35351" id="Fill-205" fill="#5FA143"></path>
            <path d="M482,359 C481.541628,360.769189 480.888681,362.761843 480,364.986201 C480.698784,368.240354 481.323667,371.400796 481.913003,374 C481.396632,368.368049 481.482694,363.406495 482,359" id="Fill-206" fill="#72B844"></path>
            <path d="M480,345.478631 C472.532322,322.798434 459.796622,306.720283 453.784424,300 C453.441724,300.225357 453.106993,300.477999 452.772262,300.767022 C452.772262,300.767022 442.168478,308.341235 462.437606,333.899533 C465.223042,337.417323 471.066879,343.844541 474.066503,348 C476.030056,345.908122 478.087254,344.759106 480,345.478631" id="Fill-207" fill="#72B844"></path>
            <path d="M502.156496,330.371383 C503.861404,329.400177 505.577178,328.400551 507.396669,327.643971 C508.895131,327.021654 510.917117,326.391497 511.769571,324.866576 C512.844275,322.932985 509.931312,322.172485 507.749306,322 C506.634103,322.506674 505.583105,323.163291 504.581496,323.842449 C503.63619,324.481426 502.709653,325.172345 501.830529,325.895604 C500.527647,326.964812 499.312677,328.127123 498.091781,329.284534 C495.784327,331.477833 493.679368,333.840676 491.628737,336.26232 C489.977169,338.208652 488.39277,340.435272 487,343 C488.379929,341.262414 489.888269,339.62871 491.520081,338.11751 C494.746171,335.13823 498.330824,332.545081 502.156496,330.371383" id="Fill-208" fill="#72B844"></path>
            <path d="M512.62353,327.239416 C512.797965,327.09235 512.972399,326.946298 513.140749,326.794161 C514.287757,325.753543 515.565591,324.277813 514.732971,322.641832 C514.069714,321.341566 512.207727,320.853713 510.841661,321.037292 C510.035409,321.145817 509.260595,321.374022 508.512149,321.676268 C508.309318,321.757408 508.107502,321.84159 507.909742,321.933887 C510.150008,322.112394 513.140749,322.899451 512.037349,324.900561 C511.162134,326.47873 509.086161,327.130891 507.547689,327.774938 C505.679617,328.557937 503.918031,329.59247 502.167601,330.597589 C498.239782,332.84719 494.559417,335.530889 491.247189,338.614202 C489.571807,340.178171 488.023193,341.868922 486.60642,343.667183 C486.038494,344.722 485.496936,345.829558 485,347 C494.060453,336.662789 511.864943,327.622801 512.62353,327.239416" id="Fill-209" fill="#A5CB50"></path>
            <path d="M483,357 C485.703549,353.447157 489.449925,350.263545 492.251458,348.136455 C493.669222,344.865552 495.823863,341.551505 499.036327,338.518395 C500.975004,336.685284 502.923679,334.875251 504.966339,333.157525 C505.925179,332.353846 506.93801,331.602341 507.955841,330.85786 C509.672555,329.604682 511.414264,328.376589 513,327 C512.252125,327.379264 494.69905,336.322074 485.766539,346.548161 C485.671555,346.770903 485.589568,347.013712 485.498584,347.241472 C484.760707,349.065552 484.124813,351.04214 483.604899,353.170234 C483.524913,354.286957 483.334944,355.561204 483,357" id="Fill-210" fill="#5FA143"></path>
            <g id="Group-216" transform="translate(459.000000, 344.000000)">
                <mask id="mask-38" fill="white">
                    <use xlink:href="#path-37"></use>
                </mask>
                <g id="Clip-212"></g>
                <path d="M23.604,13.293 C23.488,13.788 23.355,14.301 23.202,14.835 C22.649,19.114 22.557,23.932 23.109,29.401 C23.109,29.401 28.645,28.371 31.102,24.277 C31.102,24.277 28.459,14.556 32.857,4.459 C30.055,6.579 26.308,9.752 23.604,13.293" id="Fill-211" fill="#96C33E" mask="url(#mask-38)"></path>
                <path d="M0.787,57 L1.667,57 C1.416,56.64 1.183,56.242 0.986,55.792 C0.916,56.198 0.854,56.597 0.787,57" id="Fill-213" fill="#A9B664" mask="url(#mask-38)"></path>
                <path d="M22.07,1.862 C21.634,1.471 21.185,1.207 20.729,1.037 C18.809,0.325 16.744,1.462 14.773,3.532 C10.336,8.194 6.384,17.568 5.697,21.137 C4.699,26.325 4.037,36.5 3.861,39.432 C4.429,41.353 4.894,43.484 5.228,45.84 C8.942,23.671 18.077,7.914 22.07,1.862" id="Fill-214" fill="#5FA143" mask="url(#mask-38)"></path>
                <path d="M17.082,28.372 C18.753,25.514 20.051,22.955 21.064,20.648 C22.014,18.488 22.712,16.553 23.202,14.835 C23.355,14.301 23.488,13.788 23.604,13.293 C23.939,11.859 24.129,10.589 24.209,9.476 C24.578,4.323 22.658,2.46 22.658,2.46 C22.463,2.235 22.268,2.036 22.07,1.862 C18.077,7.914 8.942,23.671 5.228,45.84 C5.298,46.337 5.372,46.827 5.43,47.344 C5.751,50.221 5.874,53.426 5.736,57 L6.07,57 C7.028,51.279 8.182,43.869 9.938,40.245 C11.467,37.088 15.326,31.374 17.082,28.372" id="Fill-215" fill="#72B844" mask="url(#mask-38)"></path>
            </g>
            <path d="M447.138927,365.321604 C447.64839,366.556179 448.861202,367.065065 449.763592,367.568932 C450.854711,368.182205 451.881888,368.991203 452.909066,369.776111 C455.201652,371.537639 457.35295,373.635414 459.288705,376.046348 C460.265349,377.265868 461.173926,378.591781 462,380 C461.165676,377.924308 460.214815,376.120623 459.224764,374.546791 C457.993389,372.583515 456.733137,370.670426 455.347066,368.896853 C454.613809,367.958375 453.884678,367.021905 453.102951,366.154691 C452.570799,365.568519 452.016989,365.01045 451.450804,364.491527 C450.848523,363.943496 450.218397,363.410521 449.550113,363 C448.240358,363.141524 446.4923,363.757808 447.138927,365.321604" id="Fill-217" fill="#72B844"></path>
            <path d="M463,383 C462.716991,382.100633 462.411981,381.247667 462.08997,380.438138 C461.288943,379.053054 460.407914,377.748923 459.460883,376.549439 C457.583821,374.178112 455.497752,372.114801 453.274678,370.382213 C452.278645,369.610199 451.282613,368.814491 450.224578,368.211294 C449.349549,367.715704 448.17351,367.215179 447.679493,366.000886 C447.052473,364.462781 448.747529,363.856622 450.017571,363.717423 C449.487553,363.386701 448.935535,363.134957 448.353516,363.028336 C447.58149,362.888149 446.528455,363.263297 446.151443,364.261386 C445.679427,365.522079 446.403451,366.657394 447.052473,367.456063 C447.148476,367.573543 447.247479,367.686088 447.345482,367.800606 C447.774497,368.095788 457.86483,375.048849 463,383" id="Fill-218" fill="#A5CB50"></path>
            <g id="Group-222" transform="translate(447.000000, 367.000000)">
                <mask id="mask-40" fill="white">
                    <use xlink:href="#path-39"></use>
                </mask>
                <g id="Clip-220"></g>
                <path d="M17.43,24.344 C17.372,23.827 17.298,23.337 17.228,22.84 C16.894,20.484 16.429,18.353 15.861,16.432 C15.809,16.25 15.761,16.057 15.705,15.879 C10.57,7.825 0.48,0.782 0.051,0.483 C1.504,2.211 3.191,3.633 4.67,5.333 C5.844,6.682 6.965,8.111 8.078,9.554 C9.926,11.945 11.164,14.551 11.979,17.13 C13.635,18.852 15.867,21.454 17.43,24.344" id="Fill-219" fill="#5FA143" mask="url(#mask-40)"></path>
                <path d="M17.43,24.344 C15.867,21.454 13.635,18.852 11.979,17.13 C14.506,25.108 12.986,32.792 12.986,32.792 C13.183,33.242 13.416,33.64 13.667,34 L17.736,34 C17.874,30.426 17.751,27.221 17.43,24.344" id="Fill-221" fill="#96C33E" mask="url(#mask-40)"></path>
            </g>
            <path d="M6,343.273762 C6.16998795,345.427602 6.3229771,347.678706 6.4399688,350 C7.43189846,344.517133 9.50875117,336.877418 13.5734629,334.611273 C21.9298703,329.953644 36.8858097,312.767041 38.9506633,302.166297 C39.3516348,300.098691 37.1767891,298.63071 37.1767891,298.63071 C37.1087939,298.409109 37.0257998,298.202549 36.9398059,298 C30.4742644,301.909601 10.4226864,316.064984 6,343.273762" id="Fill-223" fill="#5FA143"></path>
            <g id="Group-230" transform="translate(0.000000, 294.000000)">
                <mask id="mask-42" fill="white">
                    <use xlink:href="#path-41"></use>
                </mask>
                <g id="Clip-225"></g>
                <path d="M4.225,35.494 C4.357,35.697 4.482,35.904 4.596,36.128 C4.596,36.128 4.739,37.085 4.942,38.719 C5.16,40.443 5.448,42.926 5.712,45.822 C5.816,46.972 5.917,48.177 6.015,49.405 C10.438,22.27 30.491,8.153 36.957,4.254 C33.228,-4.272 11.582,4.517 4.535,20.248 C2.682,24.38 2.53,28.813 2.828,34.054 C2.867,34.09 2.91,34.127 2.949,34.164 C3.432,34.623 3.864,35.067 4.225,35.494" id="Fill-224" fill="#72B844" mask="url(#mask-42)"></path>
                <path d="M2.949,34.164 C2.91,34.127 2.867,34.09 2.828,34.054 C1.998,33.28 1.027,32.48 0,31.691 L0,32.965 C1.099,33.172 2.113,33.539 2.949,34.164" id="Fill-226" fill="#A5CB50" mask="url(#mask-42)"></path>
                <path d="M5.712,45.822 C5.448,42.926 5.16,40.443 4.942,38.719 C4.739,37.085 4.596,36.128 4.596,36.128 C4.482,35.904 4.357,35.697 4.225,35.494 C3.864,35.067 3.432,34.623 2.949,34.164 C2.113,33.539 1.099,33.172 0,32.965 L0,43.684 C2.225,43.867 4.416,44.436 5.712,45.822" id="Fill-227" fill="#699941" mask="url(#mask-42)"></path>
                <path d="M6.633,68.153 C6.744,64.102 6.651,60.022 6.455,56.113 C6.338,53.798 6.185,51.553 6.015,49.405 C5.917,48.177 5.816,46.972 5.712,45.822 C4.416,44.436 2.225,43.867 0,43.684 L0,71.92 C0.27,73.343 0.446,74.203 0.446,74.203 L6.633,68.153" id="Fill-228" fill="#96C33E" mask="url(#mask-42)"></path>
                <path d="M0.446,74.203 C0.446,74.203 2.171,93.424 4.033,107 L10.742,107 C9.193,95.546 6.753,76.344 6.633,68.153 C6.633,68.153 4.079,70.661 0.446,74.203" id="Fill-229" fill="#A9B664" mask="url(#mask-42)"></path>
            </g>
            <path d="M7,362 L1,368 C4.52319379,364.487273 7,362 7,362" id="Fill-231" fill="#96C33E"></path>
            <path d="M773,317.217268 C779.959058,317.798645 793.233236,319.964679 790.231483,328 C790.945435,327.766843 791.703762,327.541762 792.482798,327.339895 C794.985573,326.701994 797.702337,326.347718 800,326.788797 L800,325.502904 C795.880972,322.267983 790.877392,319.252088 790.877392,319.252088 C781.532907,312.999255 775.938641,314.845329 773,317.217268" id="Fill-232" fill="#A5CB50"></path>
            <path d="M772.940905,317 C771.039735,318.497235 770.22826,320.20362 770.22826,320.20362 C770.22826,320.20362 769.988346,321.400201 770.000443,323.00905 C774.448937,324.27099 780.52139,326.746606 781.274398,331 C782.435664,330.748617 783.712855,330.372549 785.120084,329.860734 C785.120084,329.860734 787.45068,328.72549 790.555453,327.742081 C793.623937,319.737054 780.054666,317.579186 772.940905,317" id="Fill-233" fill="#72B844"></path>
            <path d="M770,323 C770.029506,326.672263 771.481223,332.614738 781,330.58998 C780.26529,326.550013 774.340397,324.198619 770,323" id="Fill-234" fill="#5FA143"></path>
            <path d="M792,327.746222 C794.426341,329.656269 795.749705,334.328073 796.438148,337.971778 C797.549521,337.909285 798.779483,337.903238 800,338 L800,327.195886 C797.554768,326.755416 794.663518,327.109203 792,327.746222" id="Fill-235" fill="#699941"></path>
            <g id="Group-239" transform="translate(775.000000, 337.000000)">
                <mask id="mask-44" fill="white">
                    <use xlink:href="#path-43"></use>
                </mask>
                <g id="Clip-237"></g>
                <path d="M21.606,0.656 C22.096,3.361 22.248,5.496 22.248,5.496 C21.966,12.016 24.057,23.939 25,28.919 L25,0.684 C23.837,0.588 22.665,0.594 21.606,0.656" id="Fill-236" fill="#96C33E" mask="url(#mask-44)"></path>
                <path d="M0.196,53.835 C0.196,53.835 1.201,57.558 2.023,64 L6.634,64 C6.238,59.495 5.648,54.734 4.79,49.789 C3.376,53.025 0.196,53.835 0.196,53.835" id="Fill-238" fill="#A9B664" mask="url(#mask-44)"></path>
            </g>
            <path d="M775.650593,377 C775.981766,374.642613 776.442443,372.510167 777,370.587667 C776.826011,367.651431 776.171573,357.487074 775.185962,352.302422 C774.244837,347.358707 767.110281,331.27089 761.081942,332.025694 C760.36819,332.114671 759.670255,332.42459 759,333.032432 C762.945409,339.082859 771.978032,354.836763 775.650593,377" id="Fill-240" fill="#5FA143"></path>
            <path d="M775.798304,378.499828 C775.855218,377.983614 775.930105,377.493411 776,376.997206 C772.290584,354.819029 763.167318,339.054505 759.182318,333 C758.985614,333.174072 758.789908,333.373154 758.597198,333.598248 C758.597198,333.598248 757.702545,334.47361 757.251225,336.670519 C756.527314,340.208983 756.958665,347.18587 764.16282,359.520974 C765.91618,362.524217 769.770378,368.240582 771.29708,371.398889 C773.357977,375.661653 774.589124,385.169587 775.647531,391 C775.299055,386.253036 775.393912,382.121326 775.798304,378.499828" id="Fill-241" fill="#72B844"></path>
            <path d="M787.093621,356.776111 C788.118574,355.991203 789.145589,355.181201 790.237566,354.567928 C791.137751,354.065065 792.351403,353.555175 792.861817,352.3206 C793.506279,350.757808 791.759529,350.141524 790.451012,350 C789.781803,350.409518 789.149714,350.943496 788.549591,351.491527 C787.985557,352.01045 787.429773,352.567515 786.899767,353.154691 C786.117132,354.020901 785.386054,354.958375 784.654976,355.896853 C783.269124,357.670426 782.00804,359.582512 780.775828,361.545787 C779.786965,363.121627 778.838317,364.924308 778,367 C778.830067,365.591781 779.734377,364.265868 780.712929,363.046348 C782.648378,360.635414 784.799335,358.536636 787.093621,356.776111" id="Fill-242" fill="#72B844"></path>
            <path d="M792.655508,354.801129 C792.752499,354.686614 792.852489,354.574073 792.94848,354.456597 C793.594418,353.657955 794.321349,352.521693 793.848394,351.26203 C793.47143,350.262988 792.418531,349.888841 791.647604,350.028035 C791.065659,350.13564 790.510712,350.387375 789.983763,350.718085 C791.252642,350.85728 792.94648,351.463419 792.32154,353.000483 C791.826587,354.214734 790.649699,354.71623 789.776782,355.210815 C788.717883,355.813992 787.721978,356.610659 786.728073,357.382646 C784.503285,359.114188 782.417484,361.178415 780.540663,363.549661 C779.591753,364.749104 778.714837,366.05319 777.909913,367.438226 C777.589944,368.247727 777.284973,369.100664 777,370 C782.13851,362.049122 792.225549,355.0963 792.655508,354.801129" id="Fill-243" fill="#A5CB50"></path>
            <path d="M776,378 C777.527936,375.094049 779.712239,372.475775 781.332125,370.744677 C782.128373,368.150545 783.34231,365.528248 785.147074,363.124225 C786.237758,361.672758 787.331377,360.234367 788.480753,358.877452 C789.927499,357.168483 791.577709,355.738139 793,354 C792.579377,354.300754 782.711376,361.38508 777.684447,369.486337 C777.631624,369.664376 777.585649,369.857502 777.532827,370.037552 C776.981127,371.971836 776.525289,374.117351 776.197595,376.489187 C776.129121,376.988097 776.055757,377.480972 776,378" id="Fill-244" fill="#5FA143"></path>
            <path d="M775.377227,378.31987 C774.959465,381.993505 774.861471,386.184697 775.221469,391 C775.221469,391 778.501678,390.177999 779.960236,386.894053 C779.960236,386.894053 778.393369,379.096205 781,371 C779.291816,372.746499 776.988449,375.388066 775.377227,378.31987" id="Fill-245" fill="#96C33E"></path>
        </g>
    </g>
</svg>