<?xml version="1.0" encoding="UTF-8"?>
<svg width="2139px" height="1275px" viewBox="0 0 2139 1275" version="1.1" xmlns="http://www.w3.org/2000/svg" xmlns:xlink="http://www.w3.org/1999/xlink">
    <!-- Generator: Sketch 55.2 (78181) - https://sketchapp.com -->
    <title>shutterstock_1245893356</title>
    <desc>Created with Sketch.</desc>
    <g id="shutterstock_1245893356" stroke="none" stroke-width="1" fill="none" fill-rule="evenodd">
        <polygon id="Fill-1" fill="#FFFFFE" points="0.06 1275 2139 1275 2139 0 0.06 0"></polygon>
        <path d="M2007.56,384.295 C2008.67,383.294 2009.73,382.384 2010.71,381.566 C1995.22,374.942 1957.93,361.724 1914.5,373.2 C1846.93,391.055 1821.25,453.672 1818.29,463.133 C1816.85,467.741 1813.59,478.184 1818.29,488.23 C1818.29,488.23 1818.85,489.413 1819.84,490.975 C1854.07,457.859 1907.86,414.607 1979.33,392.023 C1988.97,388.978 1998.39,386.434 2007.56,384.295" id="Fill-3" fill="#70B443"></path>
        <path d="M1979.33,392.023 C1907.86,414.607 1854.07,457.859 1819.84,490.975 C1820.52,492.055 1821.41,493.311 1822.47,494.505 C1836.64,510.334 1880.87,505.69 1887.31,504.962 C1910.73,502.314 1924.5,500.758 1939.6,490.321 C1944.17,487.157 1957.98,476.886 1966.78,458.95 C1972.71,446.882 1969.5,445.344 1977.24,427.578 C1984.93,409.921 1993.3,399.521 1996.06,396.206 C2000.14,391.317 2004.13,387.37 2007.56,384.295 C1998.39,386.434 1988.97,388.978 1979.33,392.023" id="Fill-4" fill="#539743"></path>
        <path d="M1810.97,501.825 C1810.44,501.825 1809.9,501.622 1809.5,501.217 C1808.68,500.403 1808.67,499.079 1809.49,498.26 C1862.11,445.296 1919.04,408.882 1978.7,390.029 C1979.81,389.679 1980.98,390.293 1981.33,391.394 C1981.68,392.494 1981.06,393.67 1979.96,394.018 C1920.96,412.664 1864.6,448.729 1812.45,501.207 C1812.04,501.618 1811.51,501.825 1810.97,501.825" id="Fill-5" fill="#417439"></path>
        <path d="M2090.17,565.608 C2077.53,558.719 2009.46,523.204 1933.32,548.883 C1892.38,562.689 1866.82,588.218 1853.85,601.169 C1841.21,613.786 1826.58,631.404 1820.38,655.547 C1816.75,669.701 1818.24,677.456 1820.38,682.735 C1820.52,683.071 1820.68,683.379 1820.83,683.705 C1829.48,677.717 1838.38,671.805 1847.57,666.004 C1929.88,614.048 2013.58,583.456 2090.17,565.608" id="Fill-6" fill="#539743"></path>
        <path d="M1847.57,666.004 C1838.38,671.805 1829.48,677.717 1820.83,683.705 C1826.99,697.496 1841.4,703.279 1847.57,705.741 C1874.05,716.306 1900.32,707.789 1918.68,701.559 C1932.32,696.929 1960.48,685.687 1989.79,659.729 C2018.86,633.986 2020.91,618.708 2054.63,590.712 C2068.8,578.939 2081.6,570.717 2090.18,565.614 C2090.18,565.612 2090.17,565.61 2090.17,565.608 C2013.58,583.456 1929.88,614.048 1847.57,666.004" id="Fill-7" fill="#70B443"></path>
        <path d="M1808.88,692.147 C1808.22,692.147 1807.58,691.838 1807.17,691.259 C1806.5,690.313 1806.73,689.009 1807.68,688.345 C1814.21,683.753 1823.68,678.055 1832.84,672.543 C1837.85,669.525 1842.59,666.675 1846.45,664.235 C1930.12,611.423 2000.61,582.258 2089.75,563.567 C2090.87,563.326 2091.99,564.054 2092.23,565.186 C2092.46,566.315 2091.74,567.424 2090.61,567.66 C2001.99,586.241 1931.9,615.246 1848.69,667.772 C1844.78,670.236 1840.03,673.099 1834.99,676.127 C1825.9,681.601 1816.49,687.261 1810.08,691.766 C1809.72,692.023 1809.3,692.147 1808.88,692.147" id="Fill-8" fill="#417439"></path>
        <path d="M1684.44,707.833 C1677.52,707.046 1670.89,706.734 1664.59,706.776 C1664.58,706.78 1664.58,706.783 1664.57,706.787 C1667.28,707.565 1671.55,709.059 1676.07,712.016 C1688.48,720.129 1690.06,730.894 1699.08,743.388 C1702.98,748.8 1711.55,760.678 1726.27,766.394 C1744.71,773.557 1762.12,766.898 1774.37,762.211 C1780.9,759.712 1784.22,757.539 1786.09,755.545 C1766.59,738.03 1731.9,713.232 1684.44,707.833" id="Fill-9" fill="#70B443"></path>
        <path d="M1684.44,707.833 C1731.9,713.232 1766.59,738.03 1786.09,755.545 C1786.98,754.595 1787.54,753.684 1787.96,752.799 C1792.29,743.719 1784.49,731.938 1781.69,727.702 C1767.11,705.662 1737,693.29 1708.49,694.238 C1699.77,694.528 1683.36,696.326 1664.59,706.776 C1670.89,706.734 1677.52,707.046 1684.44,707.833" id="Fill-10" fill="#539743"></path>
        <path d="M1795.29,766.394 C1794.75,766.394 1794.21,766.188 1793.8,765.774 C1771.66,743.46 1734.68,715.653 1684.2,709.911 C1678.09,709.216 1671.87,708.863 1665.7,708.863 C1665.67,708.863 1665.64,708.863 1665.62,708.863 L1665.61,708.863 C1664.46,708.863 1663.52,707.928 1663.52,706.772 C1663.52,705.589 1664.49,704.649 1665.7,704.681 C1672.03,704.681 1678.41,705.042 1684.67,705.755 C1736.36,711.635 1774.16,740.037 1796.77,762.829 C1797.58,763.649 1797.58,764.973 1796.76,765.787 C1796.35,766.191 1795.82,766.394 1795.29,766.394" id="Fill-11" fill="#417439"></path>
        <path d="M1682.35,580.254 C1707.91,595.583 1744.29,618.743 1786.87,650.768 C1787.6,650.294 1788.31,649.796 1789.01,649.272 C1789.21,640.174 1788.66,626.92 1784.83,611.626 C1771.25,557.445 1728.85,527.18 1717.9,519.603 C1674.2,489.347 1626.95,487.134 1561.04,484.048 C1539.38,483.033 1521.36,483.458 1508.93,484.04 C1518.13,489.104 1527.77,494.399 1531.76,496.596 C1644.69,558.677 1660.16,566.952 1682.35,580.254" id="Fill-12" fill="#70B443"></path>
        <path d="M1682.35,580.254 C1660.16,566.952 1644.69,558.677 1531.76,496.596 C1527.77,494.399 1518.13,489.104 1508.93,484.04 C1508.87,484.042 1508.81,484.045 1508.76,484.048 C1511.22,487.933 1514.87,493.722 1519.21,500.779 C1549.58,550.174 1554.33,565.114 1567.32,582.346 C1586.18,607.377 1608.93,619.342 1630.06,630.449 C1683.88,658.748 1734.13,658.114 1753.46,657.638 C1759.4,657.491 1764.8,657.154 1769.5,656.749 C1775.71,656.214 1781.66,654.143 1786.87,650.768 C1744.29,618.743 1707.91,595.583 1682.35,580.254" id="Fill-13" fill="#539743"></path>
        <path d="M1800.51,664.958 C1800.07,664.958 1799.63,664.819 1799.25,664.53 C1755.3,631.049 1709,598.672 1681.27,582.048 C1662.86,571.007 1648.59,563.167 1580.01,525.494 L1507.93,485.881 C1506.92,485.323 1506.55,484.052 1507.11,483.039 C1507.67,482.027 1508.94,481.66 1509.95,482.214 L1582.02,521.828 C1650.66,559.532 1664.94,567.379 1683.42,578.461 C1711.27,595.157 1757.73,627.636 1801.78,661.203 C1802.7,661.902 1802.88,663.216 1802.18,664.134 C1801.77,664.674 1801.14,664.958 1800.51,664.958" id="Fill-14" fill="#417439"></path>
        <path d="M1793.8,424.469 C1794.37,423.459 1794.88,422.416 1795.29,421.304 C1799.57,409.574 1792.67,397.54 1786.92,387.841 C1762.75,347.055 1719.99,335.555 1719.99,335.554 C1671.14,322.416 1631.03,349.263 1624.11,354.147 C1633.3,354.337 1642.97,355.045 1653.07,356.469 C1719.42,365.827 1767.27,400.66 1793.8,424.469" id="Fill-15" fill="#539743"></path>
        <path d="M1653.07,356.469 C1642.97,355.045 1633.3,354.337 1624.11,354.147 C1624,354.224 1623.88,354.312 1623.79,354.377 C1627.34,354.949 1632.56,356.082 1638.43,358.561 C1654.19,365.217 1661.62,376.066 1671.89,387.841 C1677.33,394.073 1693.04,411.878 1713.72,425.486 C1727.68,434.674 1740.38,443.039 1757.64,442.219 C1769.13,441.672 1786.93,436.827 1793.8,424.469 C1767.27,400.66 1719.42,365.827 1653.07,356.469" id="Fill-16" fill="#70B443"></path>
        <path d="M1804.7,436.989 C1804.18,436.989 1803.67,436.801 1803.26,436.421 C1776.84,411.535 1722.15,368.325 1652.77,358.54 C1643.33,357.206 1633.67,356.43 1624.07,356.231 C1622.92,356.207 1622,355.251 1622.01968,354.098 C1622.05,352.941 1623.08,352.044 1624.16,352.048979 C1633.92,352.251 1643.75,353.041 1653.36,354.397 C1723.88,364.346 1779.34,408.149 1806.13,433.376 C1806.97,434.168 1807.01,435.491 1806.22,436.332 C1805.81,436.77 1805.25,436.989 1804.7,436.989" id="Fill-17" fill="#417439"></path>
        <path d="M1806.79,328.234 C1805.85,328.234 1805,327.601 1804.76,326.651 C1792.27,276.813 1773.15,218.672 1753.61,171.124 C1751.46,165.887 1749.28,160.709 1747.08,155.587 C1746.63,154.526 1747.12,153.296 1748.18,152.84 C1749.24,152.382 1750.47,152.875 1750.93,153.937 C1753.14,159.078 1755.32,164.277 1757.48,169.535 C1777.09,217.257 1796.28,275.612 1808.82,325.634 C1809.1,326.754 1808.42,327.891 1807.3,328.172 C1807.13,328.214 1806.96,328.234 1806.79,328.234" id="Fill-18" fill="#417439"></path>
        <path d="M1749,154.77 C1747.75,159.993 1746.84,165.286 1746.3,170.632 C1745.94,174.221 1745.53,178.343 1745.09,182.878 C1742.23,212.208 1740.79,226.873 1740.91,228.89 C1743.1,267.951 1776.69,294.836 1780.64,297.908 C1788.78,304.232 1796.4,308.146 1801.56,310.457 C1801.7,310.383 1801.85,310.292 1801.99,310.215 C1790.53,265.644 1775.43,218.712 1755.55,170.329 C1753.39,165.083 1751.21,159.901 1749,154.77" id="Fill-19" fill="#70B443"></path>
        <path d="M1822.47,251.896 C1821.06,240.943 1818.4,220.311 1803.65,201.701 C1799.12,195.979 1797.6,195.702 1766,168.238 C1758.97,162.12 1753.18,157.04 1749.27,153.598 C1749.18,153.987 1749.1,154.38 1749,154.77 C1751.21,159.901 1753.39,165.083 1755.55,170.329 C1775.43,218.712 1790.53,265.644 1801.99,310.215 C1806.1,307.952 1811.65,304.155 1816.2,297.908 C1826.57,283.669 1824.4,266.823 1822.47,251.896" id="Fill-20" fill="#539743"></path>
        <polyline id="Fill-21" fill="#4D8B40" points="1820.38 1021.55 1807.83 270.719 1787.64 1023 1820.38 1021.55"></polyline>
        <path d="M1812.42,1101.73 C1815.47,1101.34 1818.54,1100.85 1821.62,1100.31 C1820.53,1100.34 1819.39,1100.42 1818.15,1100.57 C1815.94,1100.84 1814.08,1101.24 1812.42,1101.73" id="Fill-22" fill="#5B3F27"></path>
        <path d="M1760.62,1103.6 C1750.35,1103.5 1712.21,1102.68 1669.79,1085.43 C1652.34,1078.34 1643.47,1072.25 1642.54,1064.24 C1640.88,1050.05 1664.83,1036.71 1669.79,1033.96 C1687.09,1024.32 1701.44,1023.74 1712.18,1021.85 C1745.04,1016.05 1759.55,995.275 1787.88,973.398 C1797.63,965.863 1809.95,957.504 1825.33,949.328 C1803.13,935.209 1797.92,932.353 1790.9,934.036 C1781.79,936.222 1782.24,942.933 1766.68,949.176 C1755.66,953.597 1753.43,951.037 1745.48,955.231 C1740.9,957.653 1735.9,961.539 1724.29,979.455 C1709.1,1002.88 1712.79,1003.73 1706.12,1009.73 C1700.04,1015.2 1687.94,1018.43 1663.73,1024.87 C1644.17,1030.08 1638.12,1030.53 1633.45,1036.98 C1627.47,1045.26 1630.96,1053.44 1624.37,1058.18 C1619.11,1061.96 1613.76,1059 1603.17,1058.18 C1582.14,1056.56 1565.69,1065.35 1559.27,1068.78 C1556.04,1070.5 1532.85,1082.89 1535.04,1093 C1536.86,1101.36 1555.23,1104.6 1565.32,1105.11 C1587.21,1106.23 1592.67,1095.68 1610.74,1099.06 C1623.76,1101.49 1622.95,1107.34 1636.48,1109.65 C1650.14,1111.99 1653.06,1106.38 1675.84,1103.6 C1690.48,1101.81 1704.18,1100.3 1718.23,1106.63 C1728.64,1111.31 1726.92,1114.74 1736.4,1118.74 C1755.08,1126.61 1775.58,1119.1 1784.85,1115.71 C1800.68,1109.91 1803.53,1104.35 1812.42,1101.73 C1795.05,1103.93 1778.01,1103.77 1760.62,1103.6" id="Fill-23" fill="#5B3F27"></path>
        <path d="M1908.99,1055.15 C1922.15,1040.71 1930.14,1024.25 1934.89,1008.15 C1934.34,1007.67 1933.82,1007.22 1933.21,1006.71 C1922.28,997.464 1916.7,992.75 1908.99,988.538 C1893.5,980.075 1887.82,983.706 1869.63,976.427 C1866.56,975.199 1864.31,974.13 1839.35,958.26 C1834,954.856 1829.41,951.924 1825.33,949.328 C1809.95,957.504 1797.63,965.863 1787.88,973.398 C1759.55,995.275 1745.04,1016.05 1712.18,1021.85 C1701.44,1023.74 1687.09,1024.32 1669.79,1033.96 C1664.83,1036.71 1640.88,1050.05 1642.54,1064.24 C1643.47,1072.25 1652.34,1078.34 1669.79,1085.43 C1712.21,1102.68 1750.35,1103.5 1760.62,1103.6 C1778.01,1103.77 1795.05,1103.93 1812.42,1101.73 C1814.08,1101.24 1815.94,1100.84 1818.15,1100.57 C1819.39,1100.42 1820.53,1100.34 1821.62,1100.31 C1836.18,1097.72 1851.05,1093.24 1866.6,1085.43 C1876.94,1080.24 1893.89,1071.73 1908.99,1055.15" id="Fill-24" fill="#5B3F27"></path>
        <path d="M2084.61,1073.32 C2072.44,1061.99 2064.22,1066.67 2048.27,1055.15 C2034.89,1045.48 2036.37,1039.07 2027.08,1036.98 C2023.85,1036.26 1965.8,1056.38 1993.77,1046.07 C1993.77,1046.07 1981.92,1041.84 1972.58,1036.98 C1965.6,1033.36 1961.12,1029.96 1954.41,1024.87 C1945.43,1018.06 1942.68,1014.85 1934.89,1008.15 C1930.14,1024.25 1922.15,1040.71 1908.99,1055.15 C1893.89,1071.73 1876.94,1080.24 1866.6,1085.43 C1851.05,1093.24 1836.18,1097.72 1821.62,1100.31 C1829.57,1100.09 1834.48,1102.89 1851.46,1106.63 C1857,1107.85 1876.44,1112.04 1896.88,1112.68 C1928.14,1113.66 1929.11,1105.3 1948.35,1109.65 C1968.6,1114.23 1973.73,1124.89 1987.72,1121.77 C1997.35,1119.61 1997.8,1113.92 2011.94,1106.63 C2024.94,1099.92 2036.53,1098.56 2045.25,1097.54 C2076.04,1093.93 2092.62,1104.24 2096.72,1097.54 C2100.12,1091.99 2091.73,1079.95 2084.61,1073.32" id="Fill-25" fill="#5B3F27"></path>
        <path d="M1318.43,833.32 C1285.49,850.092 1257.36,868.309 1233.83,885.786 C1243.79,903.754 1269.73,907.598 1276.6,908.612 C1300.87,912.198 1320.41,903.671 1337.26,896.063 C1342.6,893.649 1361.78,884.678 1385.36,864.692 C1420.01,835.317 1425.2,815.173 1462.74,789.399 C1469.71,784.614 1475.67,781.098 1479.48,778.942 C1479.36,778.872 1479.21,778.792 1479.09,778.721 C1433.81,787.248 1377.85,803.069 1318.43,833.32" id="Fill-26" fill="#539743"></path>
        <path d="M1479.09,778.721 C1462.79,769.245 1412.87,743.224 1351.9,755.937 C1288.16,769.226 1243.58,818.344 1232.68,854.234 C1227.76,870.461 1231,879.752 1232.68,883.515 C1233.04,884.3 1233.43,885.051 1233.83,885.786 C1257.36,868.309 1285.49,850.092 1318.43,833.32 C1377.85,803.069 1433.81,787.248 1479.09,778.721" id="Fill-27" fill="#70B443"></path>
        <path d="M1221.18,895.018 C1220.55,895.018 1219.93,894.734 1219.52,894.193 C1218.82,893.271 1219,891.961 1219.92,891.262 C1244.8,872.345 1282.18,849.431 1317.48,831.455 C1368.14,805.664 1422.5,787.202 1479.03,776.581 C1480.17,776.366 1481.26,777.115 1481.47,778.251 C1481.69,779.387 1480.94,780.479 1479.8,780.692 C1423.66,791.239 1369.69,809.572 1319.38,835.185 C1284.29,853.052 1247.14,875.815 1222.45,894.591 C1222.07,894.879 1221.62,895.018 1221.18,895.018" id="Fill-28" fill="#417439"></path>
        <path d="M1132.29,791.491 C1154.45,809.116 1183.8,833.778 1214.62,861.599 C1214.71,861.584 1214.82,861.568 1214.91,861.555 C1215.08,848.008 1213.99,801.012 1179.35,761.165 C1173.78,754.752 1146.06,722.857 1104.06,715.153 C1090.09,712.59 1080.3,713.761 1039.22,708.879 C1026.47,707.362 1015.99,705.892 1008.88,704.847 C1014.6,708.201 1020.92,711.983 1027.72,716.199 C1071.63,743.395 1102.23,767.574 1132.29,791.491" id="Fill-29" fill="#539743"></path>
        <path d="M1132.29,791.491 C1102.23,767.574 1071.63,743.395 1027.72,716.199 C1020.92,711.983 1014.6,708.201 1008.88,704.847 C1008.54,704.797 1008.17,704.743 1007.85,704.695 L1015.17,716.199 C1019.88,726.415 1027.21,742.432 1036.09,762.211 C1052.65,799.127 1051.08,796.802 1052.82,799.856 C1078.02,844.213 1140.28,863.042 1185.63,863.646 C1198.33,863.815 1208.58,862.54 1214.62,861.599 C1183.8,833.778 1154.45,809.116 1132.29,791.491" id="Fill-30" fill="#70B443"></path>
        <path d="M1221.18,869.921 C1220.68,869.921 1220.18,869.741 1219.78,869.377 C1188.68,841.173 1154.66,811.956 1130.99,793.128 C1103.02,770.879 1071.31,745.661 1026.62,717.977 C1017.74,712.479 1016.12,711.723 1014.07,710.766 C1012.76,710.154 1011.27,709.462 1007.88,707.568 C1006.87,707.006 1006.51,705.731 1007.07,704.723 C1007.63,703.716 1008.91,703.354 1009.92,703.914 C1013.18,705.734 1014.59,706.393 1015.84,706.974 C1018.02,707.99 1019.74,708.792 1028.82,714.421 C1073.73,742.233 1105.53,767.533 1133.6,789.854 C1157.33,808.735 1191.43,838.02 1222.59,866.281 C1223.44,867.057 1223.51,868.379 1222.73,869.234 C1222.32,869.689 1221.75,869.921 1221.18,869.921" id="Fill-31" fill="#417439"></path>
        <polyline id="Fill-32" fill="#4D8B40" points="1231.64 1022.6 1221.18 819.726 1210.72 1024.69 1231.64 1022.6"></polyline>
        <path d="M1234.65,1105.96 C1237.08,1105.65 1239.52,1105.26 1241.96,1104.83 C1241.1,1104.85 1240.2,1104.92 1239.21,1105.04 C1237.45,1105.25 1235.98,1105.57 1234.65,1105.96" id="Fill-33" fill="#5B3F27"></path>
        <path d="M1193.5,1107.45 C1185.33,1107.37 1155.03,1106.71 1121.31,1093.01 C1107.45,1087.37 1100.4,1082.54 1099.66,1076.17 C1098.34,1064.89 1117.38,1054.3 1121.31,1052.11 C1135.07,1044.45 1146.47,1043.98 1155,1042.48 C1181.12,1037.88 1192.65,1021.37 1215.15,1003.98 C1222.9,997.996 1232.69,991.354 1244.91,984.856 C1227.28,973.637 1223.13,971.367 1217.56,972.705 C1210.31,974.442 1210.67,979.774 1198.31,984.735 C1189.55,988.248 1187.78,986.215 1181.47,989.548 C1177.82,991.473 1173.85,994.56 1164.62,1008.8 C1152.56,1027.41 1155.49,1028.09 1150.19,1032.86 C1145.36,1037.2 1135.74,1039.76 1116.5,1044.89 C1100.96,1049.03 1096.15,1049.38 1092.44,1054.51 C1087.69,1061.09 1090.46,1067.59 1085.22,1071.35 C1081.04,1074.36 1076.8,1072 1068.38,1071.35 C1051.67,1070.07 1038.6,1077.05 1033.49,1079.78 C1030.93,1081.15 1012.5,1090.99 1014.24,1099.02 C1015.68,1105.66 1030.29,1108.24 1038.3,1108.65 C1055.7,1109.54 1060.03,1101.15 1074.4,1103.84 C1084.74,1105.77 1084.1,1110.42 1094.85,1112.26 C1105.7,1114.11 1108.02,1109.66 1126.13,1107.45 C1137.76,1106.03 1148.64,1104.83 1159.81,1109.85 C1168.08,1113.57 1166.72,1116.3 1174.25,1119.48 C1189.09,1125.73 1205.38,1119.77 1212.75,1117.07 C1225.33,1112.46 1227.59,1108.04 1234.65,1105.96 C1220.85,1107.71 1207.31,1107.58 1193.5,1107.45" id="Fill-34" fill="#5B3F27"></path>
        <path d="M1311.39,1068.95 C1321.85,1057.47 1328.2,1044.39 1331.97,1031.6 C1331.53,1031.22 1331.13,1030.86 1330.64,1030.45 C1321.95,1023.11 1317.52,1019.36 1311.39,1016.01 C1299.08,1009.29 1294.57,1012.17 1280.12,1006.39 C1277.68,1005.41 1275.89,1004.56 1256.05,991.953 C1251.8,989.249 1248.16,986.919 1244.91,984.856 C1232.69,991.354 1222.9,997.996 1215.15,1003.98 C1192.65,1021.37 1181.12,1037.88 1155,1042.48 C1146.47,1043.98 1135.07,1044.45 1121.31,1052.11 C1117.38,1054.3 1098.34,1064.89 1099.66,1076.17 C1100.4,1082.54 1107.45,1087.37 1121.31,1093.01 C1155.03,1106.71 1185.33,1107.37 1193.5,1107.45 C1207.31,1107.58 1220.85,1107.71 1234.65,1105.96 C1235.98,1105.57 1237.45,1105.25 1239.21,1105.04 C1240.2,1104.92 1241.1,1104.85 1241.96,1104.83 C1253.54,1102.78 1265.35,1099.21 1277.71,1093.01 C1285.92,1088.88 1299.39,1082.12 1311.39,1068.95" id="Fill-35" fill="#5B3F27"></path>
        <path d="M1450.95,1083.38 C1441.28,1074.39 1434.75,1078.1 1422.07,1068.95 C1411.44,1061.26 1412.62,1056.17 1405.23,1054.51 C1402.67,1053.94 1356.54,1069.93 1378.76,1061.73 C1378.76,1061.73 1369.35,1058.37 1361.92,1054.51 C1356.38,1051.63 1352.82,1048.93 1347.49,1044.89 C1340.35,1039.48 1338.17,1036.92 1331.97,1031.6 C1328.2,1044.39 1321.85,1057.47 1311.39,1068.95 C1299.39,1082.12 1285.92,1088.88 1277.71,1093.01 C1265.35,1099.21 1253.54,1102.78 1241.96,1104.83 C1248.28,1104.65 1252.19,1106.88 1265.68,1109.85 C1270.08,1110.82 1285.53,1114.16 1301.77,1114.66 C1326.61,1115.44 1327.38,1108.8 1342.67,1112.26 C1358.76,1115.9 1362.83,1124.37 1373.95,1121.88 C1381.61,1120.17 1381.97,1115.65 1393.2,1109.85 C1403.53,1104.52 1412.74,1103.45 1419.67,1102.63 C1444.13,1099.77 1457.32,1107.96 1460.57,1102.63 C1463.27,1098.22 1456.61,1088.65 1450.95,1083.38" id="Fill-36" fill="#5B3F27"></path>
        <path d="M710.866,1022.6 L710.807,1021.21 C709.808,997.726 708.809,974.246 707.81,950.766 C707.434,941.943 707.059,933.121 706.683,924.299 C704.592,924.299 702.5,924.299 700.409,924.299 L700.409,1024.69 L710.866,1024.69 L710.866,1022.6" id="Fill-37" fill="#4D8B40"></path>
        <path d="M766.29,883.515 C768.495,880.414 771.165,877.951 773.628,875.443 C768.753,876.839 761.908,878.851 753.741,881.424 C720.379,891.936 713.235,896.618 707.729,902.338 C704.377,905.82 697.67,912.99 697.271,923.253 C697.214,924.746 696.907,933.106 701.776,938.372 C722.767,927.55 747.103,910.496 766.29,883.515" id="Fill-38" fill="#539743"></path>
        <path d="M773.628,875.443 C771.165,877.951 768.495,880.414 766.29,883.515 C747.103,910.496 722.767,927.55 701.776,938.372 C702.308,938.947 702.883,939.496 703.546,939.984 C707.379,942.807 712.133,942.932 718.186,942.076 C729.725,940.443 746.416,938.083 760.015,923.253 C778.139,903.489 775.136,878.631 774.655,875.149 C774.332,875.241 773.971,875.345 773.628,875.443" id="Fill-39" fill="#70B443"></path>
        <path d="M701.857,971.984 C704.971,964.365 699.999,951.642 692.043,945.213 C685.998,940.327 678.215,939.063 677.403,938.938 C670.024,937.815 665.778,940.023 660.671,936.847 C656.329,934.146 655.672,930.231 654.397,930.572 C654.182,930.63 653.985,930.833 653.799,931.104 C654.886,933.345 656.117,935.614 657.534,937.893 C669.773,957.575 688.628,967.265 701.857,971.984" id="Fill-40" fill="#539743"></path>
        <path d="M657.534,937.893 C656.117,935.614 654.886,933.345 653.799,931.104 C652.039,933.672 651.767,945.261 656.488,955.67 C661.871,967.538 674.132,978.701 687.86,978.676042 C690.69,978.671 696.982,978.66 700.409,974.493 C701.021,973.749 701.484,972.896 701.857,971.984 C688.628,967.265 669.773,957.575 657.534,937.893" id="Fill-41" fill="#70B443"></path>
        <path d="M712.131,1108.1 C714.241,1107.83 716.361,1107.5 718.486,1107.12 C717.736,1107.14 716.95,1107.2 716.095,1107.3 C714.563,1107.49 713.282,1107.76 712.131,1108.1" id="Fill-42" fill="#5B3F27"></path>
        <path d="M676.357,1109.39 C669.259,1109.32 642.92,1108.75 613.614,1096.84 C601.562,1091.94 595.438,1087.74 594.791,1082.2 C593.644,1072.4 610.193,1063.19 613.614,1061.29 C625.567,1054.63 635.479,1054.23 642.894,1052.92 C665.597,1048.92 675.618,1034.57 695.18,1019.46 C701.918,1014.25 710.429,1008.48 721.051,1002.83 C705.721,993.081 702.12,991.108 697.271,992.271 C690.976,993.78 691.288,998.416 680.54,1002.73 C672.93,1005.78 671.387,1004.01 665.9,1006.91 C662.731,1008.58 659.28,1011.27 651.26,1023.64 C640.771,1039.83 643.319,1040.41 638.711,1044.56 C634.511,1048.33 626.151,1050.56 609.431,1055.01 C595.922,1058.61 591.742,1058.92 588.516,1063.38 C584.383,1069.1 586.794,1074.75 582.242,1078.02 C578.61,1080.63 574.917,1078.58 567.602,1078.02 C553.076,1076.9 541.714,1082.97 537.275,1085.34 C535.046,1086.53 519.028,1095.09 520.544,1102.07 C521.796,1107.84 534.489,1110.08 541.458,1110.44 C556.579,1111.21 560.345,1103.92 572.83,1106.25 C581.822,1107.94 581.262,1111.98 590.607,1113.58 C600.042,1115.19 602.058,1111.31 617.796,1109.39 C627.905,1108.16 637.368,1107.12 647.077,1111.48 C654.265,1114.72 653.08,1117.09 659.625,1119.85 C672.528,1125.29 686.688,1120.1 693.089,1117.76 C704.028,1113.75 705.991,1109.91 712.131,1108.1 C700.138,1109.62 688.364,1109.51 676.357,1109.39" id="Fill-43" fill="#5B3F27"></path>
        <path d="M778.838,1075.93 C787.928,1065.95 793.447,1054.58 796.728,1043.46 C796.345,1043.13 795.992,1042.82 795.57,1042.47 C788.017,1036.08 784.164,1032.83 778.838,1029.92 C768.137,1024.07 764.216,1026.58 751.649,1021.55 C749.53,1020.7 747.974,1019.96 730.735,1009 C727.039,1006.65 723.87,1004.63 721.051,1002.83 C710.429,1008.48 701.918,1014.25 695.18,1019.46 C675.618,1034.57 665.597,1048.92 642.894,1052.92 C635.479,1054.23 625.567,1054.63 613.614,1061.29 C610.193,1063.19 593.644,1072.4 594.791,1082.2 C595.438,1087.74 601.562,1091.94 613.614,1096.84 C642.92,1108.75 669.259,1109.32 676.357,1109.39 C688.364,1109.51 700.138,1109.62 712.131,1108.1 C713.282,1107.76 714.563,1107.49 716.095,1107.3 C716.95,1107.2 717.736,1107.14 718.486,1107.12 C728.549,1105.33 738.816,1102.24 749.558,1096.84 C756.7,1093.26 768.405,1087.38 778.838,1075.93" id="Fill-44" fill="#5B3F27"></path>
        <path d="M900.143,1088.48 C891.741,1080.66 886.061,1083.89 875.045,1075.93 C865.797,1069.25 866.824,1064.82 860.405,1063.38 C858.174,1062.88 818.08,1076.78 837.399,1069.65 C837.399,1069.65 829.214,1066.73 822.759,1063.38 C817.942,1060.88 814.846,1058.53 810.21,1055.01 C804.009,1050.31 802.109,1048.09 796.728,1043.46 C793.447,1054.58 787.928,1065.95 778.838,1075.93 C768.405,1087.38 756.7,1093.26 749.558,1096.84 C738.816,1102.24 728.549,1105.33 718.486,1107.12 C723.978,1106.97 727.373,1108.9 739.101,1111.48 C742.929,1112.33 756.353,1115.22 770.473,1115.67 C792.064,1116.34 792.736,1110.57 806.027,1113.58 C820.013,1116.74 823.552,1124.1 833.216,1121.94 C839.87,1120.45 840.182,1116.52 849.948,1111.48 C858.928,1106.85 866.935,1105.91 872.954,1105.21 C894.221,1102.72 905.679,1109.83 908.508,1105.21 C910.855,1101.37 905.063,1093.06 900.143,1088.48" id="Fill-45" fill="#5B3F27"></path>
        <path d="M227.74,1024.69 C227.694,1014.31 227.718,1006.35 227.74,1001.68 C227.8,989.092 227.92,985.476 225.649,980.768 C222.294,973.813 218.869,975.142 215.191,968.219 C211.427,961.133 212.071,954.197 213.1,943.121 C214.036,933.049 216.167,929.898 217.283,928.481 C218.256,927.246 221.951,922.557 227.74,922.207 C233.577,921.854 239.46,926.038 242.38,932.664 C242.41,930.804 242.216,927.437 240.499,923.741 C240,922.668 237.675,917.665 234.015,915.933 C227.073,912.646 214.831,920.887 208.917,930.572 C199.846,945.431 206.38,962.898 206.826,964.036 C210.231,972.735 214.146,972.741 217.283,982.859 C219.495,989.994 219.441,996.1 219.375,1003.77 C219.302,1012.13 218.334,1019.24 217.283,1024.69 L227.74,1024.69" id="Fill-46" fill="#4D8B40"></path>
        <path d="M244.456,926.374 C246.185,928.103 248.097,929.629 250.083,931.056 C252.022,932.451 254.357,934.641 255.975,937.893 C260.974,947.943 254.224,958.303 253.883,958.808 C251.799,958.162 248.716,956.954 245.518,954.624 C243.504,953.158 237.391,948.565 235.061,939.984 C232.53,930.668 236.191,923.028 237.152,921.161 L242.214,924.536 C243.02,925.073 243.771,925.689 244.456,926.374" id="Fill-47" fill="#7BBC48"></path>
        <path d="M233.188,1108.1 C235.298,1107.83 237.418,1107.5 239.543,1107.12 C238.793,1107.14 238.007,1107.2 237.152,1107.3 C235.62,1107.49 234.339,1107.76 233.188,1108.1" id="Fill-48" fill="#5B3F27"></path>
        <path d="M197.414,1109.39 C190.316,1109.32 163.977,1108.75 134.67,1096.84 C122.619,1091.94 116.496,1087.74 115.848,1082.2 C114.701,1072.4 131.25,1063.19 134.67,1061.29 C146.625,1054.63 156.537,1054.23 163.951,1052.92 C186.654,1048.92 196.675,1034.57 216.237,1019.46 C222.976,1014.25 231.486,1008.48 242.108,1002.83 C226.778,993.081 223.177,991.108 218.329,992.271 C212.033,993.78 212.345,998.416 201.597,1002.73 C193.987,1005.78 192.444,1004.01 186.957,1006.91 C183.789,1008.58 180.337,1011.27 172.317,1023.64 C161.829,1039.83 164.376,1040.41 159.768,1044.56 C155.568,1048.33 147.208,1050.56 130.488,1055.01 C116.979,1058.61 112.799,1058.92 109.573,1063.38 C105.44,1069.1 107.851,1074.75 103.299,1078.02 C99.667,1080.63 95.975,1078.58 88.659,1078.02 C74.133,1076.9 62.771,1082.97 58.333,1085.34 C56.103,1086.53 40.085,1095.09 41.601,1102.07 C42.853,1107.84 55.546,1110.08 62.516,1110.44 C77.636,1111.21 81.402,1103.92 93.887,1106.25 C102.879,1107.94 102.319,1111.98 111.665,1113.58 C121.1,1115.19 123.115,1111.31 138.854,1109.39 C148.962,1108.16 158.425,1107.12 168.134,1111.48 C175.322,1114.72 174.137,1117.09 180.683,1119.85 C193.584,1125.29 207.746,1120.1 214.146,1117.76 C225.085,1113.75 227.048,1109.91 233.188,1108.1 C221.195,1109.62 209.421,1109.51 197.414,1109.39" id="Fill-49" fill="#5B3F27"></path>
        <path d="M299.896,1075.93 C308.985,1065.95 314.504,1054.58 317.785,1043.46 C317.402,1043.13 317.049,1042.82 316.627,1042.47 C309.074,1036.08 305.221,1032.83 299.896,1029.92 C289.194,1024.07 285.273,1026.58 272.707,1021.55 C270.587,1020.7 269.031,1019.96 251.792,1009 C248.096,1006.65 244.927,1004.63 242.108,1002.83 C231.486,1008.48 222.976,1014.25 216.237,1019.46 C196.675,1034.57 186.654,1048.92 163.951,1052.92 C156.537,1054.23 146.625,1054.63 134.67,1061.29 C131.25,1063.19 114.701,1072.4 115.848,1082.2 C116.496,1087.74 122.619,1091.94 134.67,1096.84 C163.977,1108.75 190.316,1109.32 197.414,1109.39 C209.421,1109.51 221.195,1109.62 233.188,1108.1 C234.339,1107.76 235.62,1107.49 237.152,1107.3 C238.007,1107.2 238.793,1107.14 239.543,1107.12 C249.606,1105.33 259.874,1102.24 270.615,1096.84 C277.757,1093.26 289.462,1087.38 299.896,1075.93" id="Fill-50" fill="#5B3F27"></path>
        <path d="M421.2,1088.48 C412.797,1080.66 407.118,1083.89 396.103,1075.93 C386.854,1069.25 387.881,1064.82 381.462,1063.38 C379.231,1062.88 339.137,1076.78 358.456,1069.65 C358.457,1069.65 350.271,1066.73 343.816,1063.38 C339,1060.88 335.903,1058.53 331.267,1055.01 C325.066,1050.31 323.166,1048.09 317.785,1043.46 C314.504,1054.58 308.985,1065.95 299.896,1075.93 C289.462,1087.38 277.757,1093.26 270.615,1096.84 C259.874,1102.24 249.606,1105.33 239.543,1107.12 C245.035,1106.97 248.43,1108.9 260.158,1111.48 C263.986,1112.33 277.41,1115.22 291.53,1115.67 C313.121,1116.34 313.793,1110.57 327.084,1113.58 C341.07,1116.74 344.609,1124.1 354.273,1121.94 C360.927,1120.45 361.239,1116.52 371.005,1111.48 C379.985,1106.85 387.992,1105.91 394.011,1105.21 C415.278,1102.72 426.736,1109.83 429.565,1105.21 C431.913,1101.37 426.12,1093.06 421.2,1088.48" id="Fill-51" fill="#5B3F27"></path>
    </g>
</svg>