<?xml version="1.0" encoding="UTF-8"?>
<svg width="159px" height="160px" viewBox="0 0 159 160" version="1.1" xmlns="http://www.w3.org/2000/svg" xmlns:xlink="http://www.w3.org/1999/xlink">
    <!-- Generator: Sketch 55.2 (78181) - https://sketchapp.com -->
    <title>Group</title>
    <desc>Created with Sketch.</desc>
    <g id="Page-2" stroke="none" stroke-width="1" fill="none" fill-rule="evenodd">
        <g id="Artboard" transform="translate(-305.000000, -354.000000)">
            <g id="Group" transform="translate(305.744000, 354.938000)">
                <path d="M79.052,1.42108547e-14 C35.393,1.42108547e-14 1.42108547e-14,35.393 1.42108547e-14,79.052 C1.42108547e-14,122.712 35.393,158.105 79.052,158.105 C122.711,158.105 158.104,122.712 158.104,79.052 C158.104,35.393 122.711,1.42108547e-14 79.052,1.42108547e-14" id="Fill-10" fill="#E8BF2A"></path>
                <path d="M83.819,157.949 C67.863,141.992 37.467,111.596 31.868,105.997 C27.596,101.725 22.073,97.662 25.551,91.023 C27.104,88.058 29.453,86.643 32.273,86.643 C33.254,86.643 34.294,86.814 35.376,87.152 C35.866,87.305 39.483,89.304 39.993,89.303 C40.022,89.303 40.041,89.297 40.049,89.284 C37.976,88.31 37.489,85.827 35.333,85.06 C37.003,82.136 39.591,79.817 42.656,78.451 C45.461,77.2 49.445,77.817 51.518,76.408 C54.403,74.448 55.59,71.413 59.252,70.011 C60.687,69.461 64.519,69.418 65.148,68.669 C66.873,66.617 64.724,61.789 63.494,60.205 C61.674,57.862 59.125,55.836 57.024,53.735 C53.849,50.56 41.008,40.334 43.752,36.241 C44.992,34.39 46.972,33.68 49.231,33.68 C54.444,33.68 61.137,37.464 63.615,39.732 C65.706,41.645 67.615,43.771 69.642,45.75 C71.033,41.49 76.199,38.779 80.87,38.779 C82.47,38.779 84.013,39.097 85.325,39.781 C86.894,40.597 88.159,42.231 89.373,43.432 C91.194,45.234 93.04,47.136 94.863,48.982 C97.677,51.832 132.777,87.035 152.935,107.177 C142.134,135.533 115.494,156.063 83.819,157.949" id="Fill-11" fill="#B59735"></path>
                <path d="M116.798,122.206 L105.365,113.663 C104.945,113.349 104.44,113.185 103.926,113.185 C103.72,113.185 103.513,113.211 103.31,113.265 L80.414,119.328 C78.681,119.79 76.782,119.612 75.164,118.842 L30.423,97.579 C29.848,97.306 29.412,96.82 29.196,96.212 C28.98,95.603 29.011,94.951 29.284,94.376 L30.109,92.64 C30.655,91.49 32.145,90.943 33.313,91.5 L69.518,108.706 C70.149,109.006 70.879,109.017 71.52,108.735 L94.059,98.802 C95.49,98.171 96.271,96.66 95.959,95.129 C95.647,93.596 94.337,92.511 92.774,92.489 L69.088,92.169 C67.761,92.151 66.697,91.058 66.715,89.733 L66.741,87.811 C66.759,86.502 67.837,85.439 69.178,85.439 L94.461,85.781 C97.863,85.827 101.102,86.927 103.829,88.964 L128.091,107.092 L116.798,122.206 Z M132.897,104.678 L106.708,85.11 C103.162,82.461 98.95,81.03 94.527,80.97 L69.244,80.628 L69.145,80.628 C65.22,80.628 61.984,83.821 61.931,87.745 L61.904,89.667 C61.851,93.645 65.044,96.926 69.022,96.98 L85.752,97.206 L70.588,103.888 L35.379,87.155 C34.407,86.693 33.37,86.459 32.295,86.459 C29.517,86.459 26.953,88.074 25.765,90.574 L24.94,92.311 C24.115,94.046 24.016,96.004 24.664,97.824 C25.311,99.643 26.624,101.1 28.359,101.924 L73.099,123.187 C75.733,124.439 78.825,124.724 81.645,123.979 L103.418,118.213 L115.847,127.5 C116.265,127.812 116.77,127.978 117.286,127.978 C117.401,127.978 117.516,127.969 117.631,127.953 C118.262,127.861 118.831,127.523 119.213,127.012 L133.385,108.044 C134.18,106.981 133.962,105.473 132.897,104.678 L132.897,104.678 Z" id="Fill-12" fill="#FFFFFE"></path>
                <path d="M70.253,101.599 L71.012,101.599 L76.885,99.01 L68.996,98.904 C66.558,98.871 64.277,97.888 62.572,96.137 C60.868,94.386 59.947,92.079 59.98,89.64 L60.006,87.719 C60.074,82.748 64.174,78.704 69.145,78.704 L94.553,79.046 C96.333,79.07 98.081,79.301 99.773,79.723 C96.867,76.335 92.563,74.181 87.75,74.181 C84.386,74.181 81.273,75.237 78.708,77.024 C76.798,73.65 73.688,71.049 69.959,69.794 L69.959,51.177 C69.959,49.849 68.882,48.772 67.553,48.772 C66.225,48.772 65.148,49.849 65.148,51.177 L65.148,68.975 L64.918,68.967 C58.928,68.967 53.718,72.292 51.024,77.195 C50.383,77.116 49.734,77.062 49.072,77.062 C43.18,77.062 38.059,80.287 35.333,85.06 C35.628,85.165 35.92,85.282 36.206,85.418 L70.253,101.599" id="Fill-13" fill="#FFFFFE"></path>
                <path d="M52.618,47.037 C58.11,49.123 63.684,48.455 66.591,45.705 C66.242,41.718 62.516,37.518 57.024,35.433 C51.533,33.347 45.958,34.015 43.051,36.765 C43.4,40.752 47.126,44.952 52.618,47.037" id="Fill-14" fill="#FFFFFE"></path>
                <path d="M79.571,48.131 C83.627,46.731 86.442,43.748 86.785,40.845 C84.724,38.772 80.669,38.159 76.612,39.56 C72.555,40.96 69.741,43.943 69.398,46.846 C71.459,48.919 75.514,49.532 79.571,48.131" id="Fill-15" fill="#FFFFFE"></path>
            </g>
        </g>
    </g>
</svg>